<?xml version="1.0" encoding="UTF-8" standalone="no"?>
<!-- Created with Inkscape (http://www.inkscape.org/) -->

<svg
   xmlns:dc="http://purl.org/dc/elements/1.1/"
   xmlns:cc="http://creativecommons.org/ns#"
   xmlns:rdf="http://www.w3.org/1999/02/22-rdf-syntax-ns#"
   xmlns:svg="http://www.w3.org/2000/svg"
   xmlns="http://www.w3.org/2000/svg"
   xmlns:sodipodi="http://sodipodi.sourceforge.net/DTD/sodipodi-0.dtd"
   xmlns:inkscape="http://www.inkscape.org/namespaces/inkscape"
   width="25.372219mm"
   height="19.793215mm"
   viewBox="0 0 25.372219 19.793215"
   version="1.1"
   id="svg3851"
   inkscape:version="0.92.4 (5da689c313, 2019-01-14)"
   sodipodi:docname="jerseys.svg">
  <defs
     id="defs3845" />
  <sodipodi:namedview
     id="base"
     pagecolor="#ffffff"
     bordercolor="#666666"
     borderopacity="1.0"
     inkscape:pageopacity="0.0"
     inkscape:pageshadow="2"
     inkscape:zoom="0.7"
     inkscape:cx="961.57162"
     inkscape:cy="-366.68128"
     inkscape:document-units="mm"
     inkscape:current-layer="layer1"
     showgrid="false"
     inkscape:window-width="2560"
     inkscape:window-height="1440"
     inkscape:window-x="0"
     inkscape:window-y="0"
     inkscape:window-maximized="1" />
  <metadata
     id="metadata3848">
    <rdf:RDF>
      <cc:Work
         rdf:about="">
        <dc:format>image/svg+xml</dc:format>
        <dc:type
           rdf:resource="http://purl.org/dc/dcmitype/StillImage" />
        <dc:title></dc:title>
      </cc:Work>
    </rdf:RDF>
  </metadata>
  <g
     inkscape:label="Layer 1"
     inkscape:groupmode="layer"
     id="layer1"
     transform="translate(-51.569848,-44.820658)">
    <g
       transform="matrix(0.26458333,0,0,0.26458333,51.026658,41.487966)"
       id="g3779">
      <g
         id="g3777">
        <g
           id="g3775">
          <path
             inkscape:connector-curvature="0"
             d="M 78.254,87.405 H 21.748 V 47.459 L 11.627,52.004 2.053,31.305 3.473,30.628 c 0.09,-0.043 9.294,-4.462 17.501,-11.376 7.131,-6.008 21.208,-6.656 26.929,-6.656 1.25,0 2.033,0.031 2.154,0.037 0.009,-0.006 0.792,-0.037 2.041,-0.037 5.722,0 19.798,0.648 26.931,6.656 8.206,6.914 17.411,11.333 17.501,11.376 l 1.418,0.677 -9.572,20.699 -10.121,-4.545 V 87.405 Z M 24.93,84.223 h 50.142 v -41.68 l 11.736,5.269 6.946,-15.017 C 90.788,31.26 83.656,27.314 76.976,21.684 70.469,16.203 56.289,15.777 52.097,15.777 c -1.254,0 -2.003,0.033 -2.025,0.034 -0.161,-10e-4 -0.914,-0.034 -2.169,-0.034 -4.192,0 -18.371,0.426 -24.878,5.907 -6.681,5.629 -13.813,9.576 -16.777,11.11 l 6.945,15.017 11.737,-5.269 z"
             id="path3773" />
        </g>
      </g>
    </g>
    <g
       transform="matrix(0.26458333,0,0,0.26458333,51.026658,41.487966)"
       id="g3787">
      <g
         id="g3785">
        <g
           id="g3783">
          <path
             inkscape:connector-curvature="0"
             d="m 50.001,25.784 c -7.271,0 -12.968,-3.589 -12.968,-8.171 0,-1.434 0.581,-2.81 1.728,-4.084 l 0.414,-0.458 0.609,-0.062 c 5.472,-0.555 9.975,-0.389 10.27,-0.378 0.027,-0.011 4.702,-0.177 10.167,0.378 l 0.613,0.062 0.41,0.459 c 1.146,1.277 1.728,2.651 1.728,4.083 0,4.582 -5.698,8.171 -12.971,8.171 z m -9.239,-9.672 c -0.363,0.515 -0.546,1.018 -0.546,1.501 0,2.36 4.018,4.989 9.785,4.989 5.767,0 9.789,-2.629 9.789,-4.989 0,-0.481 -0.185,-0.985 -0.548,-1.501 -5.037,-0.466 -9.129,-0.303 -9.173,-0.302 -0.38,10e-4 -4.273,-0.164 -9.307,0.302 z"
             id="path3781" />
        </g>
      </g>
    </g>
    <g
       transform="matrix(0.26458333,0,0,0.26458333,51.026658,41.487966)"
       id="g3795">
      <g
         id="g3793">
        <g
           id="g3791">
          <path
             inkscape:connector-curvature="0"
             d="M 92.96,38.918 C 88.315,37.639 78.44,30.657 78.023,30.36 l 1.84,-2.595 c 2.723,1.93 10.535,7.146 13.943,8.085 z"
             id="path3789" />
        </g>
      </g>
    </g>
    <g
       transform="matrix(0.26458333,0,0,0.26458333,51.026658,41.487966)"
       id="g3803">
      <g
         id="g3801">
        <g
           id="g3799">
          <path
             inkscape:connector-curvature="0"
             d="M 7.27,38.918 6.425,35.851 c 3.412,-0.939 11.221,-6.155 13.943,-8.085 l 1.84,2.595 C 21.791,30.657 11.916,37.639 7.27,38.918 Z"
             id="path3797" />
        </g>
      </g>
    </g>
    <path
       sodipodi:type="star"
       id="path3949"
       sodipodi:sides="5"
       sodipodi:cx="67.988472"
       sodipodi:cy="50.22879"
       sodipodi:r1="0.70870537"
       sodipodi:r2="0.35435268"
       sodipodi:arg1="0.92729522"
       sodipodi:arg2="1.5556137"
       inkscape:flatsided="false"
       inkscape:rounded="0"
       inkscape:randomized="0"
       d="m 68.413695,50.795755 -0.419843,-0.212653 -0.413194,0.225301 0.07251,-0.465008 -0.341958,-0.323349 0.464654,-0.07474 0.201852,-0.425141 0.214667,0.418817 0.466709,0.0606 -0.331983,0.333581 z"
       inkscape:transform-center-x="0.0033257003"
       inkscape:transform-center-y="-0.064506058"
       style="stroke-width:0.26458332" />
    <path
       sodipodi:type="star"
       id="path3949-9"
       sodipodi:sides="5"
       sodipodi:cx="67.376755"
       sodipodi:cy="51.098209"
       sodipodi:r1="0.70870537"
       sodipodi:r2="0.35435268"
       sodipodi:arg1="0.92729522"
       sodipodi:arg2="1.5556137"
       inkscape:flatsided="false"
       inkscape:rounded="0"
       inkscape:randomized="0"
       d="m 67.801978,51.665174 -0.419843,-0.212653 -0.413194,0.225301 0.07251,-0.465008 -0.341958,-0.323348 0.464654,-0.07474 0.201852,-0.425141 0.214667,0.418817 0.466709,0.0606 -0.331983,0.333581 z"
       inkscape:transform-center-x="0.0033257003"
       inkscape:transform-center-y="-0.064506058"
       style="stroke-width:0.26458332" />
    <path
       sodipodi:type="star"
       id="path3949-1"
       sodipodi:sides="5"
       sodipodi:cx="68.626305"
       sodipodi:cy="51.079239"
       sodipodi:r1="0.70870537"
       sodipodi:r2="0.35435268"
       sodipodi:arg1="0.92729522"
       sodipodi:arg2="1.5556137"
       inkscape:flatsided="false"
       inkscape:rounded="0"
       inkscape:randomized="0"
       d="m 69.051528,51.646203 -0.419844,-0.212652 -0.413193,0.225301 0.07251,-0.465008 -0.341957,-0.323349 0.464654,-0.07474 0.201852,-0.425142 0.214667,0.418817 0.466709,0.0606 -0.331983,0.333582 z"
       inkscape:transform-center-x="0.0033257003"
       inkscape:transform-center-y="-0.064506058"
       style="stroke-width:0.26458332" />
  </g>
</svg>
