<!-- Generated by IcoMoon.io -->
<svg version="1.1" xmlns="http://www.w3.org/2000/svg" width="64" height="64" viewBox="0 0 64 64">
<title>speciality-2</title>
<path fill = "#d66" d="M54.886 15.004v3.84h-23.040v-3.84h23.040zM39.526 34.204h15.36v-3.84h-15.36v3.84zM35.686 26.524h19.2v-3.84h-19.2v3.84zM39.649 43.788l-6.974-12.975-0.122 0.077-8.277-16.555c0.166-0.629 0.262-1.285 0.262-1.965 0-4.259-3.454-7.712-7.712-7.712s-7.712 3.453-7.712 7.712c0 3.235 1.993 6 4.817 7.145l8.779 17.559-11.661 7.327 12.272 14.942 3.956-3.25-8.582-10.449 12.064-7.58 6.927 12.89 11.314-6.831-2.647-4.383-6.705 4.048z"></path>
</svg>
