<?xml version="1.0" encoding="iso-8859-1"?>
<svg version="1.1" id="Capa_1" xmlns="http://www.w3.org/2000/svg" xmlns:xlink="http://www.w3.org/1999/xlink" x="0px" y="0px"
	 viewBox="0 0 512 512" style="enable-background:new 0 0 512 512;" xml:space="preserve">
<defs id="colors">
    <linearGradient id="lineColor">
        <stop offset="0" stop-color="#FF0000"/>
		<stop offset="1" stop-color="#FF0000"/>
    </linearGradient>
</defs>
<g fill="url(#lineColor)" stroke="url(#lineColor)" stroke-width="10">
	<path d="M256,0C114.615,0,0,114.615,0,256s114.615,256,256,256s256-114.615,256-256S397.385,0,256,0z M256,480
		C132.288,480,32,379.712,32,256S132.288,32,256,32s224,100.288,224,224S379.712,480,256,480z"/>
	<circle cx="176" cy="176" r="32"/>
	<circle cx="336" cy="176" r="32"/>
	<path d="M256,240c-79.529,0-144,64.471-144,144h32c0-61.856,50.144-112,112-112s112,50.144,112,112h32
		C400,304.471,335.529,240,256,240z"/>
</g>
</svg>
