<?xml version="1.0" encoding="iso-8859-1"?>
<svg version="1.1" id="Capa_1" xmlns="http://www.w3.org/2000/svg" xmlns:xlink="http://www.w3.org/1999/xlink" x="0px" y="0px"
	 viewBox="0 0 496.123 496.123" style="enable-background:new 0 0 496.123 496.123;" xml:space="preserve">
 <defs id="colors">
     <linearGradient id="lineColor">
		 <stop offset="0" stop-color="#FF0000"/>
		 <stop offset="1" stop-color="#FF0000"/>
     </linearGradient>
 </defs>
<g fill="url(#lineColor)" stroke="url(#lineColor)" stroke-width="10">
	<path d="M475.323,374.462c-7.2-41.6-39.2-74.4-80.8-83.2l-88.8-19.2c-0.8,0-0.8,0-1.6,0v-50.4c24.8-17.6,40-47.2,40-77.6v-48
			c0-52.8-43.2-96-96-96s-96,43.2-96,96v48c0,31.2,15.2,60,40,77.6v50.4c-0.8,0-0.8,0-1.6,0l-88.8,18.4
			c-41.6,8.8-73.6,41.6-80.8,83.2l-20.8,112.8c-0.8,4,2.4,8.8,6.4,9.6c0.8,0,0.8,0,1.6,0h480c4.8,0,8-3.2,8-8c0-0.8,0-0.8,0-1.6
			L475.323,374.462z M248.123,16.062c38.4,0,70.4,26.4,78.4,64h-156.8C177.723,42.462,209.723,16.062,248.123,16.062z
			 M324.923,96.062l-24,24h-105.6l-24-24H324.923z M168.123,144.062v-28.8l18.4,18.4c1.6,1.6,3.2,2.4,5.6,2.4h112
			c2.4,0,4-0.8,5.6-2.4l18.4-18.4v28.8c0,44-36,80-80,80S168.123,188.062,168.123,144.062z M288.123,231.262v53.6l-5.6,5.6
			c-8.8,8.8-21.6,14.4-33.6,14.4h-1.6c-12.8,0-24.8-4.8-33.6-14.4l-5.6-5.6v-53.6c12.8,5.6,26.4,8.8,40,8.8
			C261.723,240.062,275.323,236.862,288.123,231.262z M176.123,292.062l13.6-3.2l12,12.8c12,12,28,18.4,45.6,18.4h1.6
			c16.8,0,33.6-6.4,45.6-18.4l12.8-12.8l13.6,3.2v25.6l-42.4,56c-14.4-16.8-39.2-18.4-56-4c-1.6,1.6-2.4,2.4-4,4l-42.4-56V292.062z
			 M248.123,424.062c-13.6,0-24-10.4-24-24c0-13.6,10.4-24,24-24c13.6,0,24,10.4,24,24v48h-16v-16
			C256.123,427.262,252.923,424.062,248.123,424.062z M120.123,480.062h-102.4l3.2-16h99.2V480.062z M360.123,480.862h-224v-104.8
			h-16v72h-96.8l12.8-71.2c6.4-35.2,33.6-63.2,68.8-70.4l55.2-12v25.6c0,1.6,0.8,3.2,1.6,4.8l48,64c-0.8,3.2-1.6,7.2-1.6,11.2
			c0,19.2,13.6,35.2,32,39.2v16.8c0,4.8,3.2,8,8,8h32c4.8,0,8-3.2,8-8v-56c0-4-0.8-8-1.6-11.2l48-64c0.8-1.6,1.6-3.2,1.6-4.8v-24.8
			l55.2,12c35.2,7.2,62.4,35.2,68.8,70.4l12.8,71.2h-96.8v-72h-16V480.862z M376.123,480.062v-16h99.2l3.2,16H376.123z"/>
</g>
	<g fill="url(#lineColor)" stroke="url(#lineColor)">
	<rect x="240.123" y="392.062" width="16" height="16"/>
</g>
</svg>
