<?xml version="1.0"?>
<svg xmlns="http://www.w3.org/2000/svg" viewBox="0 0 64 64" width="512" height="512"><g id="sign_&#xB7;_ecommerce_&#xB7;_shopping_&#xB7;_tag_&#xB7;_sale" data-name="sign &#xB7; ecommerce &#xB7; shopping &#xB7; tag &#xB7; sale"><path d="M23.1,43.728a3,3,0,0,0-4.243,0l-1.414,1.414a1,1,0,0,1-1.415,0l-1.414-1.414a1,1,0,0,1,0-1.415l2.828-2.828a1,1,0,0,0-1.414-1.414L13.2,40.9a3,3,0,0,0,0,4.243l1.414,1.414a3,3,0,0,0,4.243,0l1.414-1.414a1,1,0,0,1,1.415,0L23.1,46.556a1,1,0,0,1,0,1.415L20.272,50.8a1,1,0,1,0,1.414,1.414l2.829-2.828a3,3,0,0,0,0-4.243Z"/><path d="M34.515,37.628,23.908,31.264a1,1,0,0,0-1.221.15l-1.415,1.415a1,1,0,0,0-.15,1.221l6.364,10.607a1,1,0,1,0,1.715-1.03l-1.72-2.866,3.138-3.138,2.866,1.72a1,1,0,0,0,1.03-1.715ZM26.42,38.994l-3.182-5.3.31-.31,5.3,3.182Z"/><path d="M40.657,30.414,37.121,33.95l-7.778-7.778a1,1,0,1,0-1.414,1.414l8.485,8.485a1,1,0,0,0,1.414,0l4.243-4.243a1,1,0,0,0-1.414-1.414Z"/><path d="M47.314,23.757l-2.829,2.829-2.828-2.829,1.414-1.414a1,1,0,0,0-1.414-1.414l-1.414,1.414-2.829-2.828,2.829-2.829a1,1,0,1,0-1.414-1.414l-3.536,3.536a1,1,0,0,0,0,1.414l8.485,8.485a1,1,0,0,0,1.414,0l3.536-3.536a1,1,0,1,0-1.414-1.414Z"/><path d="M58.261,17.63,59.373,10.4A5,5,0,0,0,53.694,4.7l-15.4,2.3a9.054,9.054,0,0,0-5.036,2.538L3.3,39.485a5,5,0,0,0,0,7.071L17.444,60.7a5,5,0,0,0,7.071,0l16.4-16.4C42.63,52.683,46.488,58,51,58c6.168,0,11-10.1,11-23C62,28.252,60.635,21.959,58.261,17.63ZM23.1,59.284a3.071,3.071,0,0,1-4.243,0L4.716,45.142a3,3,0,0,1,0-4.243L34.669,10.946a7.048,7.048,0,0,1,3.917-1.973l15.4-2.3a3.023,3.023,0,0,1,.453-.034A3,3,0,0,1,57.4,10.1l-.775,5.042a10.3,10.3,0,0,0-1.947-1.859,3.971,3.971,0,0,0-1.168-2.787,4.1,4.1,0,0,0-5.657,0A4,4,0,1,0,54.1,15.378a11.167,11.167,0,0,1,2.085,2.629l-1.142,7.424a6.955,6.955,0,0,1-1.97,3.885ZM51,14a3.8,3.8,0,0,1,1.421.286,2.028,2.028,0,0,1-.329.451,2.026,2.026,0,1,1,.22-2.561A5.621,5.621,0,0,0,51,12a1,1,0,0,0,0,2Zm0,42c-3.614,0-7.017-5.5-8.365-13.422L54.482,30.73a8.934,8.934,0,0,0,2.532-5l.7-4.523A39.263,39.263,0,0,1,60,35C60,46.383,55.878,56,51,56Z"/></g></svg>
