<!-- Generated by IcoMoon.io -->
<svg version="1.1" xmlns="http://www.w3.org/2000/svg" width="512" height="512" viewBox="0 0 512 512">
<title></title>
<g id="icomoon-ignore">
</g>
<path fill="#389933" d="M0 0h512v512h-512v-512z"></path>
<path fill="#fff" d="M512 322.048h-148.288c-7.808-52.672-52.864-93.376-107.712-93.376-54.816 0-99.936 40.672-107.744 93.376h-148.256v32h148.256c7.808 52.704 52.928 93.344 107.744 93.344 54.848 0 99.904-40.672 107.712-93.344h148.288v-32zM256 252.672c41.632 0 76.256 29.952 83.776 69.408h-167.552c7.52-39.488 42.176-69.408 83.776-69.408zM256 423.456c-41.6 0-76.256-29.952-83.776-69.408h167.552c-7.52 39.488-42.144 69.408-83.776 69.408z"></path>
<path fill="#fff" d="M384.512 125.056l-128-92.992-129.024 93.984 97.888-0.384v61.6h62.016v-61.824z"></path>
</svg>
