<!-- Generated by IcoMoon.io -->
<svg version="1.1" xmlns="http://www.w3.org/2000/svg" width="512" height="512" viewBox="0 0 512 512">
<title></title>
<g id="icomoon-ignore">
</g>
<path fill="#389933" d="M0 0h512v512h-512v-512z"></path>
<path fill="#fff" d="M512 318.624h-148.224c-7.488-52.992-52.704-94.016-107.776-94.016-55.040 0-100.288 41.024-107.808 94.016h-148.192v30.624h148.192c7.52 53.024 52.736 94.048 107.808 94.048s100.288-40.992 107.808-94.016h148.192v-30.656zM256 248.576c41.856 0 76.608 30.304 83.84 70.048h-167.68c7.264-39.744 42.016-70.048 83.84-70.048zM256 419.328c-41.856 0-76.608-30.304-83.84-70.080h167.68c-7.232 39.776-41.984 70.080-83.84 70.080z"></path>
<path fill="#fff" d="M112 32.064l-78.656 93.984h64.64v161.216h31.008v-161.216h61.664z"></path>
<path fill="#fff" d="M400 32.064l-78.656 93.984h63.296v161.216h31.36v-161.216h62.656z"></path>
</svg>
