<!-- Generated by IcoMoon.io -->
<svg version="1.1" xmlns="http://www.w3.org/2000/svg" width="592" height="512" viewBox="0 0 592 512">
<title></title>
<g id="icomoon-ignore">
</g>
<path fill="#fdcd67" d="M579.582 449.428l-247.433-428.607c-7.519-12.832-21.255-20.822-36.147-20.822s-28.63 7.989-36.147 20.822l-247.433 428.642c-7.482 12.904-7.482 28.846 0 41.642 7.447 12.869 21.255 20.894 36.112 20.894h494.866c14.856 0 28.665-7.952 36.148-20.93 7.519-12.869 7.519-28.738 0.037-41.642z"></path>
<path fill="#000" d="M263.468 372.615v-22.087c0-24.147 5.241-30.147 21.726-47.065l30.942-31.341c6.832-6.868 10.086-16.122 10.086-26.171 0-20.894-15.291-35.389-36.184-35.389-22.52 0-38.209 17.677-40.197 39.401l-51.511-4.013c6.037-51.041 42.618-81.225 93.696-81.225 47.824 0 84.803 27.762 84.803 78.441 0 34.991-20.459 51.872-43.811 73.959-14.856 14.098-21.291 19.303-21.291 40.233v15.255h-48.257zM287.614 397.123c17.315 0 32.171 13.266 32.171 30.582s-14.459 31.341-32.171 31.341c-16.881 0-32.171-13.266-32.171-30.545-0.036-17.279 14.459-31.377 32.171-31.377z"></path>
</svg>
