<?xml version="1.0" encoding="utf-8"?>

<svg id="swap" version="1.1" xmlns="http://www.w3.org/2000/svg" width="410.70117" height="507.89999">
    <defs id="colors">
		<linearGradient id="strokeColor">
			<stop offset="0" stop-color="#FF0000"/>
			<stop offset="1" stop-color="#FF0000"/>
		</linearGradient>
	</defs>
	<g transform="translate(-48.599)" fill="url(#strokeColor)">
    <path
       d="m 445.299,73.5 h -74.8 V 14.1 c 0,-7.8 -6.3,-14.1 -14.1,-14.1 h -293.7 c -7.8,0 -14.1,6.3 -14.1,14.1 v 390.8 c 0,7.8 6.3,14.1 14.1,14.1 h 59.3 v 74.8 c 0,7.8 6.3,14.1 14.1,14.1 h 213.3 c 3.7,0 7.3,-1.5 10,-4.1 l 95.8,-95.8 c 2.6,-2.6 4.1,-6.2 4.1,-10 V 87.6 c 0.1,-7.8 -6.2,-14.1 -14,-14.1 z m -323.3,14.1 v 303.2 h -45.2 V 28.2 h 265.5 v 45.3 h -206.1 c -7.8,0 -14.2,6.3 -14.2,14.1 z m 241.6,372.2 v -47.7 h 47.7 z m 67.6,-75.9 h -81.7 c -7.8,0 -14.1,6.3 -14.1,14.1 v 81.7 h -185.1 v -378 h 280.9 z" />
    <path
       d="m 385.199,151 h -188.9 c -7.8,0 -14.1,6.3 -14.1,14.1 0,7.8 6.3,14.1 14.1,14.1 h 188.9 c 7.8,0 14.1,-6.3 14.1,-14.1 0,-7.8 -6.3,-14.1 -14.1,-14.1 z" />
    <path
       d="m 385.199,229.9 h -188.9 c -7.8,0 -14.1,6.3 -14.1,14.1 0,7.8 6.3,14.1 14.1,14.1 h 188.9 c 7.8,0 14.1,-6.3 14.1,-14.1 0,-7.8 -6.3,-14.1 -14.1,-14.1 z" />
    <path
       d="m 385.199,308.7 h -188.9 c -7.8,0 -14.1,6.3 -14.1,14.1 0,7.8 6.3,14.1 14.1,14.1 h 188.9 c 7.8,0 14.1,-6.3 14.1,-14.1 0,-7.8 -6.3,-14.1 -14.1,-14.1 z" />
    <path
       d="m 283.199,387.5 h -86.9 c -7.8,0 -14.1,6.3 -14.1,14.1 0,7.8 6.3,14.1 14.1,14.1 h 86.9 c 7.8,0 14.1,-6.3 14.1,-14.1 0,-7.8 -6.3,-14.1 -14.1,-14.1 z" />
  </g>
</svg>