<!-- Generated by IcoMoon.io -->
<svg version="1.1" xmlns="http://www.w3.org/2000/svg" width="64" height="64" viewBox="0 0 64 64">
<title>exchange</title>
<path d="M64 42.286v6.857q0 0.464-0.339 0.804t-0.804 0.339h-49.143v6.857q0 0.464-0.339 0.804t-0.804 0.339q-0.429 0-0.857-0.357l-11.393-11.429q-0.321-0.321-0.321-0.786 0-0.5 0.321-0.821l11.429-11.429q0.321-0.321 0.821-0.321 0.464 0 0.804 0.339t0.339 0.804v6.857h49.143q0.464 0 0.804 0.339t0.339 0.804zM64 22.857q0 0.5-0.321 0.821l-11.429 11.429q-0.321 0.321-0.821 0.321-0.464 0-0.804-0.339t-0.339-0.804v-6.857h-49.143q-0.464 0-0.804-0.339t-0.339-0.804v-6.857q0-0.464 0.339-0.804t0.804-0.339h49.143v-6.857q0-0.5 0.321-0.821t0.821-0.321q0.429 0 0.857 0.357l11.393 11.393q0.321 0.321 0.321 0.821z"></path>
</svg>
