<?xml version="1.0" encoding="UTF-8" standalone="no"?>
<svg
   xmlns:dc="http://purl.org/dc/elements/1.1/"
   xmlns:cc="http://creativecommons.org/ns#"
   xmlns:rdf="http://www.w3.org/1999/02/22-rdf-syntax-ns#"
   xmlns:svg="http://www.w3.org/2000/svg"
   xmlns="http://www.w3.org/2000/svg"
   xmlns:sodipodi="http://sodipodi.sourceforge.net/DTD/sodipodi-0.dtd"
   xmlns:inkscape="http://www.inkscape.org/namespaces/inkscape"
   inkscape:version="1.0 (4035a4fb49, 2020-05-01)"
   sodipodi:docname="gotoStatistik.svg"
   xml:space="preserve"
   style="enable-background:new 0 0 512 512;"
   viewBox="0 0 512 512"
   y="0px"
   x="0px"
   id="Capa_1"
   version="1.1"><metadata
   id="metadata158"><rdf:RDF><cc:Work
       rdf:about=""><dc:format>image/svg+xml</dc:format><dc:type
         rdf:resource="http://purl.org/dc/dcmitype/StillImage" /><dc:title></dc:title></cc:Work></rdf:RDF></metadata><defs
   id="defs156" /><sodipodi:namedview
   inkscape:current-layer="Capa_1"
   inkscape:window-maximized="1"
   inkscape:window-y="51"
   inkscape:window-x="769"
   inkscape:cy="256"
   inkscape:cx="256"
   inkscape:zoom="1.2226562"
   showgrid="false"
   id="namedview154"
   inkscape:window-height="1024"
   inkscape:window-width="1144"
   inkscape:pageshadow="2"
   inkscape:pageopacity="0"
   guidetolerance="10"
   gridtolerance="10"
   objecttolerance="10"
   borderopacity="1"
   bordercolor="#666666"
   pagecolor="#ffffff" />
<path
   id="path103"
   d="M144,318.5H64c-4.418,0-8,3.582-8,8v176c0,4.418,3.582,8,8,8h80c4.418,0,8-3.582,8-8v-176  C152,322.082,148.418,318.5,144,318.5z"
   style="fill:#87de87" />
<g
   id="g109">
	<path
   id="path105"
   d="M80,502.5v-176c0-4.418,3.582-8,8-8H64c-4.418,0-8,3.582-8,8v176c0,4.418,3.582,8,8,8h24   C83.582,510.5,80,506.918,80,502.5z"
   style="fill:#217821" />
	<path
   id="path107"
   d="M296,278.5h-80c-4.418,0-8,3.582-8,8v216c0,4.418,3.582,8,8,8h80c4.418,0,8-3.582,8-8v-216   C304,282.082,300.418,278.5,296,278.5z"
   style="fill:#80e5ff" />
</g>
<g
   id="g115">
	<path
   id="path111"
   d="M232,502.5v-216c0-4.418,3.582-8,8-8h-24c-4.418,0-8,3.582-8,8v216c0,4.418,3.582,8,8,8h24   C235.582,510.5,232,506.918,232,502.5z"
   style="fill:#00aad4" />
	<path
   id="path113"
   d="M448,190.5h-80c-4.418,0-8,3.582-8,8v304c0,4.418,3.582,8,8,8h80c4.418,0,8-3.582,8-8v-304   C456,194.082,452.418,190.5,448,190.5z"
   style="fill:#FD8E61;" />
</g>
<path
   id="path117"
   d="M384,502.5v-304c0-4.418,3.582-8,8-8h-24c-4.418,0-8,3.582-8,8v304c0,4.418,3.582,8,8,8h24  C387.582,510.5,384,506.918,384,502.5z"
   style="fill:#FD7239;" />
<path
   id="path119"
   d="M504,510.5H8c-4.418,0-8-3.582-8-8s3.582-8,8-8h496c4.418,0,8,3.582,8,8S508.418,510.5,504,510.5z"
   style="fill:#AAB4BD;" />
<path
   id="path121"
   d="M482.589,5.506c-3.44-3.038-8.023-4.452-12.573-3.882l-64,8c-8.769,1.096-14.988,9.093-13.892,17.861  c1.096,8.77,9.102,14.983,17.86,13.892l24.068-3.008C352.648,139.657,252.56,191.285,180.743,217.031  C96.902,247.087,32.145,249.488,31.5,249.508c-8.825,0.275-15.76,7.649-15.492,16.477c0.262,8.667,7.371,15.515,15.983,15.515  c0.164,0,0.328-0.002,0.493-0.007c2.798-0.085,69.531-2.438,157.886-33.921c51.829-18.468,100.393-43.206,144.341-73.527  C380.307,142.587,420.976,105.012,456,62.097V81.5c0,8.836,7.163,16,16,16s16-7.164,16-16v-64  C488,12.911,486.029,8.543,482.589,5.506z"
   style="fill:#55697A;" />
<g
   id="g123">
</g>
<g
   id="g125">
</g>
<g
   id="g127">
</g>
<g
   id="g129">
</g>
<g
   id="g131">
</g>
<g
   id="g133">
</g>
<g
   id="g135">
</g>
<g
   id="g137">
</g>
<g
   id="g139">
</g>
<g
   id="g141">
</g>
<g
   id="g143">
</g>
<g
   id="g145">
</g>
<g
   id="g147">
</g>
<g
   id="g149">
</g>
<g
   id="g151">
</g>
</svg>
