<?xml version="1.0" encoding="UTF-8"?>
<svg version="1.1" xmlns="http://www.w3.org/2000/svg" width="20" height="15">
<path d="M0 0 C3.465 1.485 3.465 1.485 7 3 C7 3.99 7 4.98 7 6 C4.5 7.5 4.5 7.5 2 9 C2 9.99 2 10.98 2 12 C-0.64 12 -3.28 12 -6 12 C-6.33 12.99 -6.66 13.98 -7 15 C-8.98 14.01 -10.96 13.02 -13 12 C-13 11.01 -13 10.02 -13 9 C-11.33333333 8 -9.66666667 7 -8 6 C-8 5.01 -8 4.02 -8 3 C-5.36 3 -2.72 3 0 3 C0 2.01 0 1.02 0 0 Z M-6 6 C-6 6.99 -6 7.98 -6 9 C-4.02 9 -2.04 9 0 9 C0 8.01 0 7.02 0 6 C-1.98 6 -3.96 6 -6 6 Z " fill="#66CC33" transform="translate(13,0)"/>
<path d="M0 0 C3.465 1.485 3.465 1.485 7 3 C7 3.99 7 4.98 7 6 C3.535 7.485 3.535 7.485 0 9 C0 8.01 0 7.02 0 6 C-2.64 6 -5.28 6 -8 6 C-8 5.01 -8 4.02 -8 3 C-5.36 3 -2.72 3 0 3 C0 2.01 0 1.02 0 0 Z " fill="#D15E5E" transform="translate(13,0)"/>
</svg>
