<svg xmlns="http://www.w3.org/2000/svg" width="25.372219mm" height="19.793215mm" viewBox="0 0 25.372219 19.793215">
    <defs id="colors">
        <linearGradient id="jerseyColor">
            <stop offset="0" stop-color="#FF0000"/>
        </linearGradient>
        <linearGradient id="collarColor">
            <stop offset="0" stop-color="#00FF00"/>
        </linearGradient>
        <linearGradient id="outlineColor">
            <stop offset="0" stop-color="#0000FF"/>
        </linearGradient>
    </defs>
    <g transform="translate(-51.569848,-44.820658)">
        <g fill="url(#jerseyColor)" stroke="url(#jerseyColor)">
            <path d="m 21.537479,47.565311 c 0,-10.754464 -0.035,-19.553571 -0.07777,-19.553571 -0.04277,0 -2.505451,1.089107 -5.472621,2.420235 -2.967169,1.331131 -5.456157,2.355684 -5.531084,2.276786 -0.210495,-0.22165 -3.9779322,-8.4487 -3.8989804,-8.514302 0.038356,-0.03187 0.6724162,-0.345703 1.4090233,-0.697407 1.7199172,-0.8212 5.6870741,-3.195792 8.6995141,-5.207205 l 2.360229,-1.57593 -0.903754,-1.307327 -0.903755,-1.307327 -2.349331,1.571663 c -3.970154,2.655966 -8.9740204,5.555099 -9.5880294,5.555099 -0.1067232,0 -0.4203097,-0.498458 -0.6968589,-1.107684 L 4.081248,19.010657 6.7825776,17.470939 C 11.322095,14.88348 14.905907,12.46039 18.769621,9.3662478 20.998542,7.581282 23.004043,6.4248679 25.287479,5.6079119 26.892655,5.0336199 30.379764,4.1642694 31.779827,3.9893433 l 1.007652,-0.1258978 0,1.0634823 c 0,2.6666344 2.561492,5.3596232 6.22725,6.5469302 4.497066,1.456561 9.242135,1.261623 13.220069,-0.543109 2.979775,-1.3518807 4.808163,-3.5669707 4.889672,-5.9238267 0.03429,-0.9915686 0.07539,-1.0992371 0.420137,-1.1007019 0.7352,-0.00312 3.921325,0.7210156 5.957157,1.3539368 3.147529,0.9785375 4.901656,1.9346747 7.857143,4.2827634 3.882998,3.0849814 9.372493,6.7118224 13.353809,8.8226964 0.616916,0.327086 1.099059,0.648253 1.071429,0.713705 -0.79407,1.881026 -0.955136,2.13302 -1.300238,2.034252 -0.776282,-0.222172 -5.144248,-2.768665 -8.276812,-4.825323 l -3.305075,-2.169917 -0.860843,1.225794 c -0.473463,0.674187 -0.860841,1.267367 -0.860841,1.318177 0,0.30698 7.303755,4.909223 10.196228,6.424847 l 2.071229,1.085302 -1.970175,4.285714 c -1.083595,2.357143 -1.994414,4.318052 -2.024041,4.357577 -0.02963,0.03952 -2.498702,-1.025209 -5.486832,-2.366072 -2.988129,-1.340864 -5.480345,-2.437933 -5.538257,-2.437933 -0.05791,0 -0.105295,8.799107 -0.105295,19.553571 l 0,19.553571 -23.392857,0 -23.392857,0 0,-19.553571 z M 55.46605,23.912461 c 0.61633,-0.329671 0.634261,-0.329127 1.292645,0.03925 0.367205,0.205453 0.71151,0.329687 0.765123,0.276075 0.05361,-0.05361 0.02414,-0.423875 -0.06549,-0.822804 -0.148398,-0.660475 -0.12007,-0.766427 0.316839,-1.185012 l 0.479809,-0.459686 0.450168,0.491802 c 0.387778,0.423644 0.432237,0.590792 0.320795,1.206087 -0.07116,0.392857 -0.105456,0.73998 -0.07622,0.771386 0.02923,0.0314 0.38237,-0.110854 0.784743,-0.316129 l 0.731591,-0.37323 0.731591,0.37323 c 0.402373,0.205275 0.759464,0.345356 0.793532,0.311288 0.03407,-0.03407 -0.0172,-0.414147 -0.113912,-0.844616 -0.166091,-0.739215 -0.145704,-0.813784 0.36718,-1.342945 0.648632,-0.669218 0.673134,-0.810337 0.141252,-0.813565 -0.8315,-0.005 -1.228255,-0.235245 -1.574202,-0.913357 -0.193986,-0.380241 -0.395425,-0.691348 -0.447645,-0.691348 -0.05222,0 -0.178983,0.241072 -0.281696,0.535715 -0.247496,0.709968 -0.508957,0.681263 -0.508957,-0.05588 0,-0.424221 0.151562,-0.736796 0.535714,-1.104838 0.294643,-0.282285 0.535714,-0.578569 0.535714,-0.658409 0,-0.07984 -0.315689,-0.145162 -0.70153,-0.145162 -0.776393,0 -1.094512,-0.234145 -1.435027,-1.056219 -0.12551,-0.303008 -0.290084,-0.550924 -0.365718,-0.550924 -0.07564,0 -0.267201,0.324113 -0.425705,0.720251 -0.307089,0.767491 -0.346903,0.794454 -1.444532,0.978265 l -0.7118,0.119199 0.673677,0.617378 c 0.612828,0.561616 0.662721,0.675764 0.552402,1.263817 l -0.121272,0.64644 -0.362798,-0.699461 -0.362798,-0.69946 -0.370663,0.82996 c -0.352493,0.789271 -0.413561,0.835709 -1.245646,0.947202 l -0.874982,0.11724 0.642014,0.659942 c 0.586521,0.602899 0.633109,0.725541 0.53897,1.41887 -0.1155,0.850661 -0.04874,0.883341 0.836837,0.40965 z"
                  id="path4224"
                  transform="matrix(0.28222222,0,0,0.28222222,51.569848,44.820658)"/>
            <path d="m 57.628039,21.257451 -0.605868,-0.05786 0.567371,-0.345039 c 0.556325,-0.338321 0.580077,-0.338521 1.219932,-0.01026 l 0.652562,0.334783 -0.614065,0.06811 c -0.337735,0.03746 -0.886704,0.04208 -1.219932,0.01026 z"
                  transform="matrix(0.28222222,0,0,0.28222222,51.569848,44.820658)"/>
        </g>
        <path fill="url(#collarColor)" stroke="url(#collarColor)"
              d="M 41.72689,8.9779657 C 37.67151,8.0729796 35.257975,5.9158173 36.080111,3.9310044 36.265396,3.4836868 36.415475,3.4007937 37.219069,3.3019229 40.5405,2.8932681 53.167929,3.0529042 53.624342,3.5093187 c 0.08333,0.083331 0.22087,0.3933463 0.30564,0.6889233 0.490262,1.7094445 -1.696556,3.7054247 -5.071075,4.6285365 -1.54567,0.4228232 -5.535744,0.5074064 -7.132017,0.1511872 z"
              id="path4155"
              transform="matrix(0.28222222,0,0,0.28222222,51.569848,44.820658)"/>
        <g fill="url(#outlineColor)">
            <g transform="matrix(0.26458333,0,0,0.26458333,51.026658,41.487966)" id="g3779">
                <path d="M 78.254,87.405 H 21.748 V 47.459 L 11.627,52.004 2.053,31.305 3.473,30.628 c 0.09,-0.043 9.294,-4.462 17.501,-11.376 7.131,-6.008 21.208,-6.656 26.929,-6.656 1.25,0 2.033,0.031 2.154,0.037 0.009,-0.006 0.792,-0.037 2.041,-0.037 5.722,0 19.798,0.648 26.931,6.656 8.206,6.914 17.411,11.333 17.501,11.376 l 1.418,0.677 -9.572,20.699 -10.121,-4.545 V 87.405 Z M 24.93,84.223 h 50.142 v -41.68 l 11.736,5.269 6.946,-15.017 C 90.788,31.26 83.656,27.314 76.976,21.684 70.469,16.203 56.289,15.777 52.097,15.777 c -1.254,0 -2.003,0.033 -2.025,0.034 -0.161,-10e-4 -0.914,-0.034 -2.169,-0.034 -4.192,0 -18.371,0.426 -24.878,5.907 -6.681,5.629 -13.813,9.576 -16.777,11.11 l 6.945,15.017 11.737,-5.269 z"
                      id="path3773"/>
            </g>
            <g transform="matrix(0.26458333,0,0,0.26458333,51.026658,41.487966)" id="g3787">
                <path d="m 50.001,25.784 c -7.271,0 -12.968,-3.589 -12.968,-8.171 0,-1.434 0.581,-2.81 1.728,-4.084 l 0.414,-0.458 0.609,-0.062 c 5.472,-0.555 9.975,-0.389 10.27,-0.378 0.027,-0.011 4.702,-0.177 10.167,0.378 l 0.613,0.062 0.41,0.459 c 1.146,1.277 1.728,2.651 1.728,4.083 0,4.582 -5.698,8.171 -12.971,8.171 z m -9.239,-9.672 c -0.363,0.515 -0.546,1.018 -0.546,1.501 0,2.36 4.018,4.989 9.785,4.989 5.767,0 9.789,-2.629 9.789,-4.989 0,-0.481 -0.185,-0.985 -0.548,-1.501 -5.037,-0.466 -9.129,-0.303 -9.173,-0.302 -0.38,10e-4 -4.273,-0.164 -9.307,0.302 z"
                      id="path3781"/>
            </g>
            <g transform="matrix(0.26458333,0,0,0.26458333,51.026658,41.487966)" id="g3795">
                <path d="M 92.96,38.918 C 88.315,37.639 78.44,30.657 78.023,30.36 l 1.84,-2.595 c 2.723,1.93 10.535,7.146 13.943,8.085 z"
                      id="path3789"/>
            </g>
            <g transform="matrix(0.26458333,0,0,0.26458333,51.026658,41.487966)" id="g3803">
                <path d="M 7.27,38.918 6.425,35.851 c 3.412,-0.939 11.221,-6.155 13.943,-8.085 l 1.84,2.595 C 21.791,30.657 11.916,37.639 7.27,38.918 Z"
                      id="path3797"/>
            </g>
            <path d="m 68.413695,50.795755 -0.419843,-0.212653 -0.413194,0.225301 0.07251,-0.465008 -0.341958,-0.323349 0.464654,-0.07474 0.201852,-0.425141 0.214667,0.418817 0.466709,0.0606 -0.331983,0.333581 z"
                  style="stroke-width:0.26458332"/>
            <path d="m 67.801978,51.665174 -0.419843,-0.212653 -0.413194,0.225301 0.07251,-0.465008 -0.341958,-0.323348 0.464654,-0.07474 0.201852,-0.425141 0.214667,0.418817 0.466709,0.0606 -0.331983,0.333581 z"
                  style="stroke-width:0.26458332"/>
            <path d="m 69.051528,51.646203 -0.419844,-0.212652 -0.413193,0.225301 0.07251,-0.465008 -0.341957,-0.323349 0.464654,-0.07474 0.201852,-0.425142 0.214667,0.418817 0.466709,0.0606 -0.331983,0.333582 z"
                  style="stroke-width:0.26458332"/>
        </g>
    </g>
</svg>
