<!-- Generated by IcoMoon.io -->
<svg version="1.1" xmlns="http://www.w3.org/2000/svg" width="512" height="512" viewBox="0 0 512 512">
<title></title>
<g id="icomoon-ignore">
</g>
<path fill="#389933" d="M512 236.8h-52.96c-9.12-97.216-86.656-174.72-183.84-183.84v-52.96h-38.4v52.96c-97.216 9.12-174.72 86.624-183.84 183.84h-52.96v38.4h52.96c9.12 97.184 86.624 174.72 183.84 183.84v52.96h38.4v-52.96c97.184-9.12 174.72-86.656 183.84-183.84h52.96v-38.4zM426.048 236.8h-150.848v-150.848c79.456 8.928 141.92 71.392 150.848 150.848zM236.8 85.952v150.848h-150.848c8.928-79.456 71.392-141.92 150.848-150.848zM85.952 275.2h150.848v150.88c-79.456-8.96-141.92-71.424-150.848-150.88zM275.2 426.048v-150.848h150.88c-8.96 79.456-71.424 141.92-150.88 150.848z"></path>
</svg>
