<!-- Generated by IcoMoon.io -->
<svg version="1.1" xmlns="http://www.w3.org/2000/svg" width="464" height="512" viewBox="0 0 464 512">
<title></title>
<g id="icomoon-ignore">
</g>
<path fill="#444" d="M24.608 429.936v-148.16l132.8-65.344-30.592-14.752c-33.472-16.128-54.272-49.504-54.272-87.040 0-53.248 43.328-96.608 96.544-96.608 53.088 0 96.32 43.328 96.32 96.608 0 36.736-21.6 70.912-55.008 87.040l-30.4 14.688 131.424 65.344v148.224h-286.816z"></path>
<path fill="#444" d="M169.056 34.608c43.968 0 79.744 35.904 79.744 80.032 0 30.432-17.92 58.752-45.632 72.16l-34.528 16.672-34.624-16.704c-27.712-13.344-44.928-40.992-44.928-72.128 0-44.128 35.872-80.032 79.968-80.032zM168.768 229.296l126.048 62.656v121.408h-253.664v-121.312l127.616-62.752zM169.056 1.52c-62.496 0-113.056 50.624-113.056 113.12 0 44.864 25.728 83.648 63.616 101.952l-111.552 54.848v175.008h319.872v-175.008l-110.368-54.848c37.824-18.304 64.352-57.088 64.352-101.952 0-62.496-50.432-113.12-112.864-113.12v0z"></path>
<path fill="#fff" d="M152.608 493.936v-148.16l132.8-65.344-30.592-14.752c-33.472-16.128-54.272-49.504-54.272-87.040 0-53.248 43.328-96.608 96.544-96.608 53.088 0 96.32 43.328 96.32 96.608 0 36.736-21.6 70.912-55.008 87.040l-30.4 14.688 131.424 65.344v148.224h-286.816z"></path>
<path fill="#444" d="M297.056 98.608c43.968 0 79.744 35.904 79.744 80.032 0 30.432-17.92 58.752-45.632 72.16l-34.56 16.672-34.592-16.704c-27.712-13.344-44.928-40.992-44.928-72.128 0-44.128 35.872-80.032 79.968-80.032zM296.768 293.296l126.048 62.656v121.408h-253.664v-121.312l127.616-62.752zM297.056 65.52c-62.496 0-113.056 50.624-113.056 113.12 0 44.864 25.728 83.648 63.616 101.952l-111.552 54.88v175.008h319.872v-175.008l-110.368-54.88c37.856-18.272 64.352-57.056 64.352-101.952 0-62.496-50.432-113.12-112.864-113.12v0z"></path>
<path fill="#fff" d="M265.408 229.104h56v109.344h-56v-109.344z"></path>
</svg>
