<!-- Generated by IcoMoon.io -->
<svg version="1.1" xmlns="http://www.w3.org/2000/svg" width="64" height="64" viewBox="0 0 64 64">
<title>mo-select</title>
<path d="M0 8.727h11.636v11.636h-11.636v-11.636zM17.455 8.727h11.636v11.636h-11.636v-11.636zM34.909 8.727h11.636v11.636h-11.636v-11.636zM52.364 8.727h11.636v11.636h-11.636v-11.636zM0 26.182h11.636v11.636h-11.636v-11.636zM17.455 26.182h11.636v11.636h-11.636v-11.636zM34.909 26.182h11.636v11.636h-11.636v-11.636zM52.364 26.182h11.636v11.636h-11.636v-11.636zM17.455 43.636h11.636v11.636h-11.636v-11.636zM34.909 43.636h11.636v11.636h-11.636v-11.636z" fill="green" ></path>
</svg>
