<?xml version="1.0" encoding="UTF-8" standalone="no"?>
<svg    id="ordersSent" version="1.1" width="66mm" height="47mm" viewBox="0 0 66 47" xmlns="http://www.w3.org/2000/svg">
	<defs id="colors">
		<linearGradient id="lineupColor">
			<stop offset="0" stop-color="#a9a9a9"/>
			<stop offset="1" stop-color="#a9a9a9"/>
		</linearGradient>
		<linearGradient id="tickColor">
			<stop offset="0" stop-color="#43A047"/>
			<stop offset="1" stop-color="#43A047"/>
		</linearGradient>
	</defs>
	<g fill="url(#lineupColor)">
	  <path d="M21,0 h10 v10 h-10 z"/>
	  <path d="M0,12 h10 v10 H0 Z"/>
	  <path d="M14,12 h10 v10 h-10 z"/>
	  <path d="M28,12 h10 v10 h-10 z"/>
	  <path d="M42,12 h10 v10 h-10 z"/>
	  <path d="M0,24 h10 v10 H0 Z"/>
	  <path d="M14,24 h10 v10 h-10 z"/>
	  <path d="M28,24 h10 v10 h-10 z"/>
	  <path d="M42,24 h10 v10 h-10 z"/>
	  <path d="M14,36 h10 v10 h-10 z"/>
	  <path d="M28,36 h10 v10 h-10 z"/>
	</g>
	 <polygon fill="url(#tickColor)" transform="translate(4, 2)" points="40.6,12.1 17,35.7 7.4,26.1 4.6,29 17,41.3 43.4,14.9"/>
</svg>
