<?xml version="1.0" encoding="UTF-8" standalone="no"?>
<svg    id="ordersMissing" version="1.1" width="66mm" height="47mm" viewBox="0 0 66 47" xmlns="http://www.w3.org/2000/svg">
	<defs id="colors">
		<linearGradient id="lineupColor">
			<stop offset="0" stop-color="#a9a9a9"/>
			<stop offset="1" stop-color="#a9a9a9"/>
		</linearGradient>
		<linearGradient id="penColor">
			<stop offset="0" stop-color="#FF0000"/>
			<stop offset="1" stop-color="#FF0000"/>
		</linearGradient>
	</defs>
	<g fill="url(#lineupColor)">
	  <path d="M21,0 h10 v10 h-10 z"/>
	  <path d="M0,12 h10 v10 H0 Z"/>
	  <path d="M14,12 h10 v10 h-10 z"/>
	  <path d="M28,12 h10 v10 h-10 z"/>
	  <path d="M42,12 h10 v10 h-10 z"/>
	  <path d="M0,24 h10 v10 H0 Z"/>
	  <path d="M14,24 h10 v10 h-10 z"/>
	  <path d="M28,24 h10 v10 h-10 z"/>
	  <path d="M42,24 h10 v10 h-10 z"/>
	  <path d="M14,36 h10 v10 h-10 z"/>
	  <path d="M28,36 h10 v10 h-10 z"/>
	</g>
	<g fill="url(#penColor)" transform="scale(0.03), translate(450, 400)">
		<path d="M694.4,201.1L215.1,680.4c-27.8,27.8-27.8,72.8,0,100.5c27.7,27.8,72.8,27.8,100.5,0l479.3-479.3L694.4,201.1z M666.9,173.7l-53.3-53.3c-1.5,1.1-2.9,2.1-4.3,3.5L130,603.1c-14.9,14.9-14.9,39.2,0,54.1c14.9,14.9,39.2,14.9,54.1,0l479.3-479.3C664.8,176.6,665.8,175.1,666.9,173.7z M821.3,328c-1.5,1.1-2.9,2.1-4.3,3.5L337.8,810.8c-14.9,14.9-14.9,39.2,0,54.1c14.9,14.9,39.2,14.9,54.1,0l479.3-479.3c1.3-1.3,2.4-2.8,3.5-4.2L821.3,328z"/>
        <path d="M283.3,850.6c-153.1,0-131.2-131.2-131.2-131.2c-65.6,0-76.5-43.7-76.5-43.7L10,992.7l328-76.5C276.8,903,283.3,850.6,283.3,850.6z"/>
        <path d="M959.8,154.1L843.2,37.5C803-2.8,737.7-2.8,697.5,37.5L646.9,88l262.3,262.3l50.5-50.5C1000.1,259.6,1000.1,194.3,959.8,154.1z"/>
	</g>
</svg>
