<!-- Generated by IcoMoon.io -->
<svg version="1.1" xmlns="http://www.w3.org/2000/svg" width="512" height="512" viewBox="0 0 512 512">
<title></title>
<g id="icomoon-ignore">
</g>
<path fill="#389933" d="M0 0h512v512h-512v-512z"></path>
<path fill="#fff" d="M448.736 257.44v-191.584h-385.536v191.584h-63.2v32h512v-32h-63.264zM94.816 97.472h322.432v159.968h-322.432v-159.968z"></path>
<path fill="#fff" d="M316.8 407.36c0 16.436-27.221 29.76-60.8 29.76s-60.8-13.324-60.8-29.76c0-16.436 27.221-29.76 60.8-29.76s60.8 13.324 60.8 29.76z"></path>
<path fill="#fff" opacity="0.5" d="M81.056 84.672c0 0 52 38.656 60 68s6.656 114.688 6.656 114.688l-66.656 8v-190.688z"></path>
<path fill="#fff" opacity="0.5" d="M427.808 84.672c0 0-52 38.656-60 68s-6.688 114.688-6.688 114.688l66.688 8v-190.688z"></path>
</svg>
