<!-- Generated by IcoMoon.io -->
<svg version="1.1" xmlns="http://www.w3.org/2000/svg" width="512" height="512" viewBox="0 0 512 512">
<title></title>
<g id="icomoon-ignore">
</g>
<path fill="#389933" d="M383.072 67.104c-104.128-53.824-232.672-12.896-286.528 91.2-11.744 22.688-18.688 47.008-21.76 71.904h-74.784l118.752 141.792 118.624-141.792h-98.4c2.624-14.656 7.424-28.928 14.432-42.432 37.6-72.736 127.392-101.44 200.288-63.776 72.736 37.696 101.312 127.584 63.68 200.352-18.24 35.328-49.12 61.312-86.944 73.344-37.888 12.064-78.112 8.576-113.344-9.632l-29.44 56.8c31.168 16.128 64.512 23.744 97.408 23.744 76.928 0 151.36-41.92 189.12-114.944 53.888-104.064 13.024-232.608-91.104-286.56z"></path>
</svg>
