<?xml version="1.0" encoding="UTF-8"?>
<svg version="1.1" xmlns="http://www.w3.org/2000/svg" width="16" height="16">
<path d="M0 0 C2.64 0 5.28 0 8 0 C6.52307692 4.67692308 6.52307692 4.67692308 3.875 6.3125 C3.25625 6.539375 2.6375 6.76625 2 7 C2.350625 7.5775 2.70125 8.155 3.0625 8.75 C4.14917407 11.35801776 3.93065133 12.39417629 3 15 C0.21846374 12.74000179 -0.9256614 11.69878283 -1.3125 8.0625 C-1.03197999 5.31340392 -0.63262132 2.6886406 0 0 Z " fill="#66CC33" transform="translate(1,0)"/>
<path d="M0 0 C1.9375 0.375 1.9375 0.375 4 1 C5.38226016 3.76452033 5.09525387 6.0461363 5.0625 9.125 C5.05347656 10.22070312 5.04445313 11.31640625 5.03515625 12.4453125 C5.02355469 13.28835938 5.01195312 14.13140625 5 15 C2.36 14.67 -0.28 14.34 -3 14 C-1.8141763 10.62496331 -0.72426311 8.35277269 2 6 C1.34 5.01 0.68 4.02 0 3 C0 2.01 0 1.02 0 0 Z " fill="#5DB246" transform="translate(11,1)"/>
</svg>
