<?xml version="1.0" encoding="iso-8859-1"?>
<svg id="hitting" height="512" width="512" viewBox="0 0 471.608 471.608"  xmlns="http://www.w3.org/2000/svg">
  <defs id="colors">
     <linearGradient id="foregroundColor">
		 <stop offset="0" stop-color="#000000"/>
		 <stop offset="1" stop-color="#000000"/>
     </linearGradient>
 </defs>
<g>
<path fill="url(#foregroundColor)" d="m376.606 162.731c-38.059 0-70.956 22.5-86.106 54.894l-28.662-93.382-11.852.79c-37.558 2.504-71.641-20.843-82.87-56.775l-3.701-11.844-14.895-14.896-127.039 127.038-21.481 21.482 21.213 21.213 21.482-21.481 27.92 27.92-21.65 21.65 21.213 21.213 21.65-21.65 50.912 50.912-21.482 21.481 21.213 21.213 21.482-21.481 27.578 27.578-21.482 21.482 21.213 21.213 21.481-21.482 27.577 27.577-21.482 21.481 21.213 21.213 21.482-21.481 15.91 15.91 12.306-12.313c20.099-20.106 32.423-46.869 34.525-75.229 61.936 41.723 147.78-4.058 147.331-79.246.001-52.383-42.616-95-94.999-95zm-285.942-20.931c32.121 29.161 53.251 66.756 56.534 110.046l-83.289-83.29zm203.67 193.411c-1.364 16.824-7.493 32.859-17.527 46.244l-99.265-99.265h.225v-16.824c.244-56.088-24.685-107.339-65.89-144.779l31.197-31.198c17.156 38.588 54.609 64.041 96.863 65.738l7.999 26.063h-41.67v30h50.878l19.279 62.81c13.225 17.494 19.718 39.335 17.911 61.211zm131.554-35.168-11.578-15.936-24.27 17.633 11.603 15.97c-15.238 6.642-34.835 6.642-50.073 0l11.603-15.97-24.27-17.633-11.578 15.936c-10.875-12.489-17.056-30.043-15.487-47.584l18.761 6.096 9.271-28.531-18.761-6.096c8.914-14.58 23.414-25.377 40.496-29.43v19.734h30v-19.734c17.083 4.052 31.582 14.85 40.496 29.43l-18.761 6.096 9.271 28.531 18.761-6.096c1.571 17.543-4.609 35.092-15.484 47.584z"/>
<path fill="url(#foregroundColor)" d="m361.606 242.731h30v30h-30z"/>
</g>
</svg>
