<?xml version="1.0" encoding="UTF-8"?>

<svg id="startingAssistant" version="1.1" xmlns="http://www.w3.org/2000/svg" width="173.02873mm" height="59.49342mm"  viewBox="0 0 173.02873 59.49342">

	<defs id="colors">
		<linearGradient id="colorIcon">
			<stop offset="0" stop-color="#FF0000"/>
			<stop offset="1" stop-color="#FF0000"/>
		</linearGradient>
		<linearGradient id="colorLineup">
			<stop offset="0" stop-color="#0000FF"/>
			<stop offset="1" stop-color="#0000FF"/>
		</linearGradient>
	</defs>

	<g id="layer1" transform="translate(-19.872216,-133.58428)">

		<g id="centralIcon" fill="url(#colorIcon)" transform="matrix(1.2685016,0,0,1.1493618,38.243478,13.792267)">
			<path d="m 51.365746,114.29194 c -0.165963,0.0722 -0.350688,0.21621 -0.396869,0.31221 -0.05532,0.10393 -0.331927,1.20083 -0.618154,2.44925 l -0.525792,2.25725 -0.590254,0.18407 c -0.331927,0.10393 -0.959221,0.336 -1.393132,0.51214 l -0.784118,0.32807 -2.168111,-1.23256 c -2.241711,-1.28055 -2.574119,-1.4329 -2.961368,-1.36862 -0.147684,0.0242 -0.793258,0.52048 -1.72506,1.3369 -1.955965,1.70504 -1.946825,1.38491 -0.06446,3.88216 0.774978,1.04055 1.439314,1.92918 1.475874,1.98511 0.03704,0.0559 -0.06446,0.32014 -0.230425,0.60021 -0.156824,0.27213 -0.42429,0.80055 -0.590253,1.17662 l -0.304507,0.68828 -2.57412,0.40862 c -1.420553,0.22414 -2.656862,0.44828 -2.767504,0.49628 -0.41515,0.19993 -0.488751,0.52842 -0.488751,2.25725 0,1.75304 0.0736,2.08111 0.516652,2.25725 0.119782,0.048 1.383992,0.288 2.822825,0.53635 l 2.60154,0.45621 0.212145,0.51214 c 0.119782,0.288 0.387248,0.83269 0.590253,1.20876 l 0.378108,0.68035 -1.420552,1.88118 c -1.475874,1.94504 -1.651458,2.23346 -1.577376,2.56946 0.0279,0.12814 0.599874,0.68828 1.540816,1.49676 1.965105,1.69712 1.596137,1.68877 4.474283,0.0559 1.199268,-0.67241 2.223432,-1.24883 2.287893,-1.28097 0.06446,-0.0321 0.368968,0.0559 0.691756,0.19993 0.313647,0.13607 0.922661,0.36814 1.356091,0.51256 l 0.793258,0.26421 0.516652,2.25725 c 0.286227,1.23255 0.562833,2.32946 0.618154,2.43339 0.193865,0.38441 0.581114,0.44827 2.5924,0.44827 2.011287,0 2.380255,-0.0559 2.60154,-0.41613 0.06446,-0.096 0.350689,-1.20084 0.627295,-2.44926 l 0.516652,-2.27311 0.793258,-0.26421 c 0.433429,-0.144 1.042444,-0.37606 1.356091,-0.51255 0.322787,-0.144 0.627294,-0.23207 0.691756,-0.19993 0.06446,0.0321 1.106905,0.61648 2.315794,1.30476 1.946344,1.09649 2.250851,1.24091 2.57412,1.24091 0.341548,-0.008 0.44305,-0.0881 1.790002,-1.24091 0.784118,-0.68034 1.466733,-1.29683 1.512914,-1.36862 0.04618,-0.0801 0.09236,-0.26421 0.101503,-0.41614 0.0091,-0.23207 -0.193865,-0.54428 -1.125667,-1.78518 -0.627294,-0.82435 -1.30077,-1.72884 -1.494634,-2.00139 l -0.359829,-0.48835 0.295367,-0.50421 c 0.156824,-0.28007 0.42429,-0.80848 0.590254,-1.18455 l 0.304507,-0.68828 2.629441,-0.44828 c 1.448454,-0.25628 2.712182,-0.49628 2.813685,-0.54428 0.406009,-0.192 0.479611,-0.52007 0.479611,-2.26518 0,-1.3849 -0.0279,-1.66497 -0.165964,-1.90497 -0.203005,-0.35228 -0.240046,-0.36021 -3.431839,-0.89656 l -2.527939,-0.43241 -0.212145,-0.51214 c -0.119782,-0.288 -0.387729,-0.83228 -0.590253,-1.20877 l -0.378109,-0.68034 1.420553,-1.88119 c 1.476355,-1.94504 1.651458,-2.23345 1.577376,-2.56945 -0.0279,-0.12814 -0.599874,-0.68828 -1.540816,-1.49677 -1.965106,-1.69711 -1.596137,-1.68918 -4.474283,-0.0559 -1.199268,0.67242 -2.223432,1.24883 -2.287893,1.28056 -0.06446,0.0321 -0.368968,-0.0559 -0.691756,-0.19993 -0.313647,-0.13607 -0.922661,-0.36814 -1.356091,-0.51214 l -0.793258,-0.26421 -0.470471,-2.23346 c -0.258326,-1.23256 -0.516652,-2.30525 -0.571973,-2.40125 -0.230425,-0.36021 -0.599874,-0.42407 -2.620301,-0.42407 -1.549956,-4.2e-4 -1.928065,0.0238 -2.186392,0.13565 z m 3.256736,1.76097 c 0.02742,0.12814 0.239565,1.10484 0.470471,2.17712 0.221285,1.07269 0.470471,2.02518 0.534932,2.12118 0.165964,0.21621 0.41515,0.32014 1.236309,0.52841 0.368968,0.0881 1.171847,0.38442 1.789521,0.64821 0.931801,0.40821 1.180987,0.48042 1.466733,0.44828 0.230425,-0.0242 1.005403,-0.41614 2.481758,-1.25676 l 2.15897,-1.2167 0.728797,0.64028 0.737937,0.63235 -1.402273,1.87325 c -0.996262,1.31269 -1.421033,1.95297 -1.448453,2.16918 -0.04618,0.24793 0.03704,0.44828 0.498372,1.2409 0.304507,0.52049 0.673475,1.2647 0.802398,1.65704 0.165963,0.45621 0.331927,0.76842 0.479611,0.88863 0.258326,0.20828 0.193864,0.192 3.339477,0.72042 l 2.232571,0.37607 v 0.86483 c 0,0.76049 -0.01828,0.87235 -0.156823,0.91242 -0.09236,0.0242 -1.162227,0.20827 -2.380256,0.4082 -1.217547,0.19994 -2.352354,0.40821 -2.509177,0.44828 -0.39687,0.11228 -0.609015,0.39235 -0.82116,1.0727 -0.09236,0.30428 -0.433429,1.02469 -0.756697,1.59276 -0.488751,0.84856 -0.581114,1.08856 -0.544554,1.32856 0.0279,0.192 0.488751,0.88069 1.448454,2.15332 l 1.411412,1.8649 -0.736974,0.6407 -0.747077,0.64027 -2.140209,-1.21669 c -1.559096,-0.8807 -2.250852,-1.23256 -2.509178,-1.2647 -0.304507,-0.0321 -0.507512,0.0321 -1.346951,0.40821 -0.544553,0.24 -1.254589,0.52007 -1.586997,0.60856 -1.134807,0.32807 -1.365232,0.41614 -1.522055,0.61649 -0.0736,0.10393 -0.350689,1.12069 -0.609015,2.25725 -0.249186,1.12862 -0.47961,2.12118 -0.507512,2.19339 -0.04618,0.12813 -0.175103,0.144 -1.051584,0.144 -0.87648,0 -1.005402,-0.0159 -1.051584,-0.144 -0.0279,-0.0722 -0.240046,-1.00049 -0.47047,-2.05732 -0.230425,-1.05684 -0.461331,-2.04105 -0.516652,-2.17712 -0.128923,-0.34434 -0.452191,-0.52841 -1.236309,-0.71248 -0.350689,-0.0801 -1.180988,-0.37607 -1.835702,-0.65656 -0.987123,-0.42407 -1.254589,-0.50421 -1.531676,-0.47249 -0.221285,0.0242 -1.015024,0.42407 -2.481758,1.25677 l -2.15897,1.21669 -0.728797,-0.64027 -0.737937,-0.63235 1.402273,-1.87325 c 1.005402,-1.33691 1.420552,-1.95297 1.457593,-2.16918 0.03704,-0.26421 -0.03704,-0.44035 -0.470471,-1.1687 -0.276606,-0.47248 -0.599874,-1.08855 -0.701376,-1.37697 -0.378109,-0.99214 -0.479611,-1.18456 -0.710517,-1.32063 -0.129404,-0.0722 -1.263729,-0.30427 -2.555359,-0.52841 -1.28249,-0.20828 -2.417296,-0.40821 -2.527939,-0.43242 -0.203005,-0.0401 -0.212145,-0.0801 -0.212145,-0.91242 v -0.87234 l 0.258326,-0.048 c 0.138544,-0.0242 1.263729,-0.20828 2.500038,-0.40821 1.236309,-0.192 2.334074,-0.40821 2.444717,-0.46414 0.249185,-0.144 0.368968,-0.36021 0.609014,-1.0727 0.101502,-0.32014 0.443051,-1.01634 0.747077,-1.55269 0.470471,-0.80849 0.553693,-1.0247 0.516652,-1.27263 -0.0279,-0.19993 -0.479611,-0.87234 -1.448454,-2.15332 l -1.402272,-1.87325 0.738418,-0.63234 0.728796,-0.64028 2.158971,1.21669 c 1.540816,0.87235 2.250851,1.23256 2.500037,1.2647 0.304508,0.0321 0.507512,-0.0321 1.346952,-0.40821 0.544553,-0.24 1.254588,-0.52049 1.586997,-0.60856 1.143946,-0.32807 1.365231,-0.41614 1.522055,-0.61648 0.08322,-0.11228 0.350688,-1.09649 0.609014,-2.21718 0.240046,-1.11277 0.470471,-2.09739 0.498372,-2.20132 0.04618,-0.16821 0.09236,-0.17614 1.051584,-0.17614 h 1.005403 z" />
			<path d="m 52.002181,123.32136 c -4.031714,0.70414 -6.919,3.73023 -6.919,7.24424 0,4.04243 3.828709,7.36445 8.487717,7.36445 4.659008,0 8.487717,-3.32202 8.487717,-7.36445 0,-4.07415 -3.86575,-7.39617 -8.561318,-7.3561 -0.498853,-4.2e-4 -1.162708,0.0555 -1.495116,0.11186 z m 3.302917,1.72884 c 1.697639,0.36813 3.265875,1.47297 4.124076,2.88959 0.959702,1.56898 0.959702,3.68223 0,5.2512 -1.162227,1.92918 -3.339477,3.07367 -5.858276,3.07367 -2.518318,0 -4.695568,-1.14449 -5.858276,-3.07367 -0.959221,-1.56897 -0.959221,-3.68222 0,-5.2512 1.457113,-2.41711 4.492564,-3.56994 7.592476,-2.88959 z"/>
		</g>
		
		<g id="lineup" fill="url(#colorLineup)">
			<path d="m 156.39805,168.6433 h 36.21038 v 9.82738 h -36.21038 z" />
			<path d="m 125.55491,168.6433 h 26.08061 v 9.82738 h -26.08061 z" />
			<path d="m 59.786765,168.6433 h 26.080476 v 9.82738 H 59.786765 Z" />
			<path d="m 19.872216,168.6433 h 36.21038 v 9.82738 h -36.21038 z" />
			<path d="M 59.786765,150.3492 H 85.86724 v 9.82738 H 59.786765 Z" />
			<path d="m 19.872216,150.3492 h 36.21038 v 9.82738 h -36.21038 z" />
			<path d="m 156.69057,150.39215 h 36.21038 v 9.82738 h -36.21038 z" />
			<path d="m 126.3766,150.39215 h 26.08061 v 9.82738 H 126.3766 Z" />
			<path d="m 62.4326,183.23321 h 36.210381 v 9.82738 H 62.4326 Z" />
			<path d="m 111.76639,183.25032 h 36.21038 v 9.82738 h -36.21038 z" />
			<path d="m 87.953874,133.58428 h 36.210386 v 9.82738 H 87.953874 Z" />
		</g>
		
	</g>
	
</svg>
