<?xml version="1.0" encoding="utf-8"?>

<svg id="swap" version="1.1" xmlns="http://www.w3.org/2000/svg" width="512px" height="512px" fill="#FFFFFF">
    <defs id="colors">
		<linearGradient id="fillColor">
			<stop offset="0" stop-color="green"/>
			<stop offset="1" stop-color="green"/>
		</linearGradient>
	</defs>
	<g fill="url(#fillColor)">
		<path d="M440.448,87.831H114.629l52.495-52.495c8.084-8.084,8.084-21.19,0-29.274c-8.083-8.084-21.19-8.084-29.274,0
			L20.126,123.788c-8.084,8.084-8.084,21.19,0,29.274L137.85,270.786c4.041,4.042,9.338,6.062,14.636,6.062
			c5.298,0,10.596-2.02,14.636-6.064c8.084-8.084,8.084-21.19,0-29.274l-52.495-52.495h325.82c27.896,0,50.592-22.695,50.592-50.592
			C491.04,110.528,468.345,87.831,440.448,87.831z"/>

		<path d="M491.877,358.942L374.154,241.218c-8.083-8.084-21.19-8.084-29.274,0c-8.084,8.084-8.084,21.19,0,29.274l52.495,52.495
			H71.556c-27.896,0-50.592,22.695-50.592,50.592s22.695,50.593,50.592,50.593h325.819l-52.495,52.495
			c-8.084,8.084-8.084,21.19,0,29.274c4.042,4.042,9.34,6.064,14.636,6.064c5.296,0,10.596-2.02,14.636-6.064l117.724-117.724
			C499.961,380.132,499.961,367.026,491.877,358.942z"/>
	</g>
</svg>
