<?xml version="1.0" encoding="UTF-8" standalone="no"?>

<svg id="Unavailable" xmlns:svg="http://www.w3.org/2000/svg" width="16px" height="16px" viewBox="0 0 16 16" version="1.1">
<defs id="colors">
	<linearGradient id="foregroundColor">
    	<stop offset="0" stop-color="#FF0000"/>
      	<stop offset="1" stop-color="#FF0000"/>
    </linearGradient>
</defs>
<g fill="url(#foregroundColor)">
    <path
       style="opacity:1;fill-opacity:1;stroke:none;stroke-width:1.08500004;stroke-miterlimit:4;stroke-dasharray:none;stroke-opacity:1"
       d="M 8.15625 0.5 A 7.46875 7.46875 0 0 0 0.6875 7.96875 A 7.46875 7.46875 0 0 0 8.15625 15.4375 A 7.46875 7.46875 0 0 0 15.625 7.96875 A 7.46875 7.46875 0 0 0 8.15625 0.5 z M 7.9277344 1.4414062 A 6.59375 6.59375 0 0 1 7.9296875 1.4414062 A 6.59375 6.59375 0 0 1 10.332031 1.8066406 A 6.59375 6.59375 0 0 1 12.390625 2.9863281 L 3.5175781 12.707031 A 6.59375 6.59375 0 0 1 1.9316406 5.8554688 A 6.59375 6.59375 0 0 1 7.9277344 1.4414062 z M 13.009766 3.5703125 A 6.59375 6.59375 0 0 1 14.380859 10.207031 A 6.59375 6.59375 0 0 1 5.9804688 14.255859 A 6.59375 6.59375 0 0 1 4.15625 13.267578 L 13.009766 3.5703125 z "
       id="path8354" />
</g>
</svg>
