<?xml version="1.0" encoding="utf-8"?>
<svg version="1.1" id="Layer_1" xmlns="http://www.w3.org/2000/svg" xmlns:xlink="http://www.w3.org/1999/xlink" x="0px" y="0px"
	 width="300px" height="180px" viewBox="0 0 300 180">
	   <defs id="colors">
			 <linearGradient id="foregroundColor">
				 <stop offset="0" stop-color="#000000"/>
				 <stop offset="1" stop-color="#000000"/>
			 </linearGradient>
		</defs>
	<g fill="url(#foregroundColor)" transform="translate(0,-60)">
		<path d="M147.394,152.928c-8.559,4.74-9.875,7.9-9.875,17.907h-14.352c0-15.405,2.765-20.672,17.38-28.704
		c6.715-3.687,9.744-6.715,9.744-13.035c0-7.373-6.452-11.587-17.775-11.587c-9.744,0-16.327,3.95-22.91,10.271l-8.822-10.402
		c7.505-7.505,18.434-13.562,32.127-13.562c18.697,0,31.469,8.427,31.469,24.49C164.379,141.078,158.454,146.739,147.394,152.928z
		 M130.278,198.88c-5.398,0-9.875-4.477-9.875-9.875s4.477-10.007,9.875-10.007s9.875,4.608,9.875,10.007
		S135.676,198.88,130.278,198.88z"/>
		<path d="M274.47,227.004L42.898,227l-1.646-1.321c-12.256-9.837-19.285-24.483-19.285-40.183
	c0-28.23,22.834-51.229,51.002-51.498c-0.001-0.167-0.002-0.335-0.002-0.502c0-33.359,27.141-60.5,60.5-60.5s60.5,27.141,60.5,60.5
	c0,0.167-0.001,0.335-0.002,0.502c23.453,0.225,43.625,16.352,49.369,38.586c0.946-0.087,1.898-0.13,2.851-0.13
	c14.724,0,27.362,10.835,30.736,26.348c2.93,13.473-0.837,23.856-0.999,24.292L274.47,227.004z M80.466,214.996l185.109,0.008
	c0.514-3.19,0.835-8.062-0.381-13.652c-1.77-8.138-8.474-16.897-19.01-16.897c-1.383,0-2.76,0.147-4.095,0.438l-8.567,2.347
	l-0.881-6.844c-2.524-19.61-19.366-34.399-39.175-34.399c-1.725,0-3.461,0.112-5.161,0.334l-7.632,0.993l1.047-8.906
	c0.16-1.567,0.246-3.253,0.246-4.921c0-26.743-21.757-48.5-48.5-48.5s-48.5,21.757-48.5,48.5c0,1.669,0.086,3.355,0.256,5.013
	l1.047,8.815l-7.641-0.994c-1.7-0.222-3.437-0.334-5.162-0.334c-21.78,0-39.5,17.72-39.5,39.5c0,11.358,4.798,21.998,13.233,29.504
	L80.466,214.996z"/>
	</g>
</svg>
