<!-- Generated by IcoMoon.io -->
<svg version="1.1" xmlns="http://www.w3.org/2000/svg" width="64" height="64" viewBox="0 0 64 64">
<title>speciality-1</title>
<defs id="colors">
    <linearGradient id="lineColor">
        <stop offset="0" stop-color="#FF0000"/>
        <stop offset="1" stop-color="#FF0000"/>
    </linearGradient>
</defs>
<g fill="url(#lineColor)" stroke="url(#lineColor)" stroke-width="1">
    <path d="M37.641 44.955c1.225-0.707 1.644-2.272 0.937-3.497l-1.238-2.145c1.12-0.882 2.132-1.894 3.014-3.014l2.144 1.238c0.403 0.233 0.844 0.343 1.277 0.343 0.885 0 1.746-0.459 2.22-1.28 0.706-1.225 0.288-2.79-0.937-3.497l-2.138-1.234c0.519-1.294 0.894-2.659 1.102-4.080h2.471c1.414 0 2.56-1.147 2.56-2.56s-1.146-2.56-2.56-2.56h-2.461c-0.204-1.451-0.582-2.845-1.112-4.164l2.138-1.234c1.225-0.707 1.644-2.272 0.937-3.497-0.706-1.224-2.271-1.643-3.497-0.937l-2.144 1.238c-0.883-1.12-1.894-2.132-3.014-3.014l1.238-2.145c0.707-1.225 0.288-2.79-0.937-3.497-1.226-0.707-2.79-0.287-3.497 0.937l-1.235 2.139c-1.259-0.506-2.586-0.878-3.967-1.087v-2.486c0-1.414-1.146-2.56-2.56-2.56s-2.56 1.146-2.56 2.56v2.446c-1.491 0.201-2.924 0.583-4.276 1.127l-1.236-2.139c-0.706-1.224-2.272-1.643-3.497-0.937s-1.644 2.272-0.937 3.497l1.238 2.145c-1.12 0.882-2.132 1.894-3.014 3.014l-2.145-1.239c-1.225-0.707-2.79-0.287-3.497 0.937s-0.288 2.79 0.937 3.497l2.139 1.235c-0.53 1.318-0.908 2.712-1.112 4.163h-2.463c-1.413 0-2.56 1.147-2.56 2.56s1.147 2.56 2.56 2.56h2.473c0.207 1.42 0.582 2.786 1.102 4.079l-2.139 1.235c-1.225 0.707-1.644 2.272-0.937 3.497 0.474 0.821 1.334 1.28 2.219 1.28 0.434 0 0.874-0.111 1.277-0.343l2.145-1.239c0.882 1.12 1.895 2.133 3.014 3.014l-1.238 2.145c-0.706 1.225-0.288 2.79 0.937 3.497 0.403 0.233 0.844 0.343 1.277 0.343 0.885 0 1.745-0.459 2.22-1.28l1.235-2.138c1.353 0.544 2.785 0.927 4.276 1.127v2.447c0 1.413 1.146 2.56 2.56 2.56s2.56-1.147 2.56-2.56v-2.486c1.38-0.209 2.708-0.581 3.968-1.087l1.235 2.138c0.474 0.821 1.334 1.28 2.219 1.28 0.434-0.001 0.875-0.112 1.278-0.344zM26.228 12.321c7.093 0 12.864 5.771 12.864 12.865s-5.771 12.866-12.864 12.866c-7.094 0-12.866-5.771-12.866-12.865s5.771-12.866 12.866-12.866zM58.039 47.842h-2.027c-0.372-1.252-1.027-2.38-1.888-3.319l1.040-1.802c0.707-1.225 0.288-2.79-0.937-3.497s-2.79-0.287-3.497 0.937l-1.035 1.794c-0.593-0.132-1.207-0.205-1.839-0.205s-1.246 0.074-1.839 0.205l-1.036-1.794c-0.707-1.224-2.271-1.644-3.497-0.937-1.224 0.707-1.644 2.272-0.937 3.497l1.040 1.803c-0.861 0.939-1.516 2.067-1.888 3.318h-2.027c-1.413 0-2.56 1.146-2.56 2.56s1.147 2.56 2.56 2.56h2.12c0.382 1.139 1 2.167 1.795 3.034l-1.040 1.802c-0.707 1.225-0.288 2.79 0.937 3.497 0.403 0.233 0.843 0.343 1.277 0.343 0.885 0 1.745-0.459 2.219-1.28l1.036-1.793c0.593 0.131 1.207 0.206 1.84 0.206 0.631 0 1.246-0.075 1.839-0.206l1.036 1.794c0.474 0.822 1.334 1.28 2.219 1.28 0.435 0 0.874-0.111 1.277-0.343 1.225-0.707 1.644-2.272 0.937-3.497l-1.040-1.802c0.794-0.867 1.413-1.896 1.796-3.035h2.119c1.413 0 2.56-1.146 2.56-2.56s-1.147-2.56-2.561-2.56zM44.466 50.26c0-1.87 1.521-3.39 3.391-3.39s3.39 1.521 3.39 3.39-1.521 3.391-3.39 3.391-3.391-1.521-3.391-3.391z"></path>
</g>
</svg>
