<!-- Generated by IcoMoon.io -->
<svg version="1.1" xmlns="http://www.w3.org/2000/svg" width="64" height="64" viewBox="0 0 64 64">
<title>speciality-5</title>
<defs id="colors">
    <linearGradient id="lineColor">
        <stop offset="0" stop-color="#FF0000"/>
        <stop offset="1" stop-color="#FF0000"/>
    </linearGradient>
</defs>
<g fill="url(#lineColor)" stroke="url(#lineColor)" stroke-width="1">
    <path d="M19.523 28.587c-5.664 0-10.273-4.608-10.273-10.273s4.609-10.272 10.273-10.272 10.272 4.608 10.272 10.272c0 5.664-4.608 10.273-10.272 10.273zM19.523 13.162c-2.842 0-5.153 2.311-5.153 5.152s2.312 5.153 5.153 5.153c2.841 0 5.152-2.312 5.152-5.153s-2.311-5.152-5.152-5.152zM45.333 36.136c3.234-1.559 5.501-4.869 5.501-8.7 0-5.331-4.305-9.653-9.636-9.653s-9.644 4.323-9.644 9.653c0 3.831 2.187 7.14 5.421 8.7l-9.531 4.688v15.135h27.307v-15.135l-9.417-4.688z"></path>
</g>
</svg>
