<!-- Generated by IcoMoon.io -->
<svg version="1.1" xmlns="http://www.w3.org/2000/svg" width="64" height="64" viewBox="0 0 64 64">
<title>analysis-sectors</title>
<path d="M31.947 22.795v-22.795h-2.56v22.795c0.419-0.067 0.843-0.128 1.28-0.128s0.861 0.061 1.28 0.128zM29.387 38.539v25.461h2.563v-25.461c-0.416 0.064-0.84 0.128-1.277 0.128s-0.867-0.061-1.285-0.128zM64 29.387h-25.461c0.064 0.419 0.128 0.843 0.128 1.28s-0.061 0.861-0.128 1.28h25.461v-2.56zM22.795 29.387h-22.795v2.563h22.795c-0.067-0.419-0.128-0.843-0.128-1.28s0.061-0.864 0.128-1.283zM30.667 51.333c-11.395 0-20.667-9.272-20.667-20.667s9.272-20.667 20.667-20.667c11.392 0 20.667 9.272 20.667 20.667s-9.272 20.667-20.667 20.667zM30.667 14c-9.189 0-16.667 7.477-16.667 16.667 0 9.187 7.477 16.667 16.667 16.667 9.187 0 16.667-7.48 16.667-16.667 0-9.189-7.477-16.667-16.667-16.667z"></path>
</svg>
