<!-- Generated by IcoMoon.io -->
<svg version="1.1" xmlns="http://www.w3.org/2000/svg" width="64" height="64" viewBox="0 0 64 64">
<title>analysis-main</title>
<path d="M42.639 32c0 5.876-4.763 10.639-10.639 10.639s-10.639-4.763-10.639-10.639c0-5.876 4.763-10.639 10.639-10.639s10.639 4.763 10.639 10.639zM32 53.818c-12.030 0-21.818-9.788-21.818-21.818s9.788-21.818 21.818-21.818c12.030 0 21.818 9.788 21.818 21.818-0.003 12.030-9.788 21.818-21.818 21.818zM32 13.921c-9.969 0-18.079 8.11-18.079 18.079s8.11 18.079 18.079 18.079c9.969 0 18.076-8.11 18.076-18.079s-8.11-18.079-18.076-18.079zM32 64c-17.645 0-32-14.355-32-32s14.355-32 32-32c17.645 0 32 14.355 32 32s-14.355 32-32 32zM32 5.484c-14.621 0-26.518 11.895-26.518 26.515s11.897 26.516 26.518 26.516c14.624 0 26.513-11.895 26.513-26.516s-11.892-26.515-26.513-26.515z"></path>
</svg>
