<!-- Generated by IcoMoon.io -->
<svg version="1.1" xmlns="http://www.w3.org/2000/svg" width="64" height="64" viewBox="0 0 64 64">
<title>analysis-filter</title>
<path d="M12.973 25.946c-7.154 0-12.973-5.819-12.973-12.973s5.819-12.973 12.973-12.973 12.973 5.819 12.973 12.973-5.819 12.973-12.973 12.973zM12.973 5.189c-4.293 0-7.784 3.491-7.784 7.784s3.491 7.784 7.784 7.784 7.784-3.491 7.784-7.784-3.491-7.784-7.784-7.784zM51.027 25.946c-7.151 0-12.973-5.819-12.973-12.973s5.822-12.973 12.973-12.973 12.973 5.819 12.973 12.973-5.819 12.973-12.973 12.973zM51.027 5.189c-4.29 0-7.784 3.491-7.784 7.784s3.494 7.784 7.784 7.784 7.784-3.491 7.784-7.784-3.494-7.784-7.784-7.784zM61.405 51.027c0 5.732-4.647 10.378-10.378 10.378s-10.378-4.647-10.378-10.378c0-5.732 4.647-10.378 10.378-10.378s10.378 4.647 10.378 10.378zM51.027 64c-7.151 0-12.973-5.822-12.973-12.973s5.822-12.973 12.973-12.973 12.973 5.822 12.973 12.973-5.819 12.973-12.973 12.973zM51.027 43.243c-4.29 0-7.784 3.494-7.784 7.784s3.494 7.784 7.784 7.784 7.784-3.494 7.784-7.784-3.494-7.784-7.784-7.784zM12.973 64c-7.154 0-12.973-5.822-12.973-12.973s5.819-12.973 12.973-12.973 12.973 5.822 12.973 12.973-5.819 12.973-12.973 12.973zM12.973 43.243c-4.293 0-7.784 3.494-7.784 7.784s3.491 7.784 7.784 7.784 7.784-3.494 7.784-7.784-3.491-7.784-7.784-7.784z"></path>
</svg>
