<!-- Generated by IcoMoon.io -->
<svg version="1.1" xmlns="http://www.w3.org/2000/svg" width="64" height="64" viewBox="0 0 64 64">
<title>ball</title>
<path d="M20 27.616l4.583 14.108h14.834l4.583-14.108-12.001-8.718zM63.861 34.964c0.090-0.976 0.139-1.965 0.139-2.964 0-17.644-14.356-32-32-32s-32 14.356-32 32 14.356 32 32 32c16.364 0 29.897-12.349 31.775-28.216 0.029-0.124 0.059-0.248 0.086-0.373v-0.447zM40.7 59.456l-8.7-6.319-8.698 6.319c-5.293-1.681-9.927-4.852-13.408-9.019l3.707-11.409-10.394-7.551c0.106-5.908 1.999-11.387 5.161-15.918h10.783l3.511-10.805c2.93-1.007 6.072-1.555 9.339-1.555 3.811 0 7.45 0.746 10.782 2.096l3.335 10.264h9.516c3.162 4.532 5.055 10.011 5.161 15.918l-10.394 7.551 3.706 11.409c-3.481 4.166-8.115 7.337-13.407 9.018z"></path>
</svg>
