<!-- Generated by IcoMoon.io -->
<svg version="1.1" xmlns="http://www.w3.org/2000/svg" width="64" height="64" viewBox="0 0 64 64">
<title>ball-miss</title>
<path d="M29.137 0.138c-11.9 1.063-22.425 8.912-26.863 20.050-0.95 2.375-1.625 4.962-2.050 7.75-0.25 1.688-0.212 6.75 0.063 8.487 0.788 4.95 2.438 9.3 5 13.163l0.925 1.388-5.713 5.712 4.563 4.563 56.188-56.188-4.563-4.563-2.875 2.875-2.875 2.862-0.563-0.4c-5.813-4.225-13.788-6.362-21.238-5.7zM34.975 3.388c1.962 0.212 4.212 0.7 6.075 1.337l1.737 0.588 1.112 3.425 1.112 3.438-4.663 4.662c-2.563 2.563-4.688 4.663-4.725 4.663s-0.825-0.563-1.75-1.25c-0.925-0.675-1.763-1.238-1.85-1.25-0.15 0-11.337 8.050-11.8 8.488-0.188 0.188-0.163 0.325 0.413 2.075 0.337 1.025 0.863 2.638 1.163 3.575l0.538 1.712-5.488 5.475-5.475 5.487 0.313-0.938c0.175-0.513 0.675-2.038 1.113-3.388l0.787-2.462-5.175-3.725-5.175-3.738 0.075-1.438c0.237-4.563 1.688-9.088 4.263-13.313l0.725-1.188h10.813l1.637-5.037c0.9-2.763 1.7-5.2 1.762-5.412 0.113-0.375 0.2-0.412 1.462-0.787 1.512-0.438 3.4-0.825 4.85-0.987 1.413-0.163 4.725-0.175 6.15-0.013zM56.788 14.525l-1.125 1.125 0.462 0.713c1.813 2.725 3.388 6.55 4.050 9.887 0.325 1.637 0.663 4.837 0.538 5.15-0.038 0.113-2.375 1.862-5.188 3.913l-5.112 3.712 0.538 1.712c0.3 0.938 1.138 3.5 1.85 5.688l1.313 4-0.638 0.725c-2.1 2.438-5.513 5.050-8.6 6.6-1.237 0.625-3.763 1.625-4.087 1.625-0.125 0-2.15-1.4-4.513-3.112l-4.288-3.125-4.087 2.975c-2.25 1.638-4.212 3.050-4.375 3.15-0.25 0.15-0.387 0.138-1.313-0.175-1.387-0.487-4.3-1.913-5.5-2.7-0.538-0.35-1.012-0.638-1.063-0.638s-0.588 0.5-1.2 1.112l-1.1 1.1 0.412 0.325c2.075 1.538 5.85 3.375 8.925 4.325 3.163 0.975 5.613 1.325 9.313 1.325 3.075 0 4.063-0.1 6.625-0.638 9.325-1.987 17.362-8.113 21.763-16.6 1.737-3.362 2.788-6.663 3.388-10.638 0.25-1.725 0.212-6.762-0.075-8.5-0.65-4.025-1.6-6.95-3.313-10.25-0.813-1.575-2.125-3.713-2.35-3.85-0.063-0.037-0.625 0.438-1.25 1.063zM36.688 34.625l-7.125 7.125 4.938-0.025 4.925-0.038 2.288-7c1.25-3.85 2.237-7.038 2.188-7.087s-3.3 3.113-7.212 7.025z"></path>
</svg>
