<!-- Generated by IcoMoon.io -->
<svg version="1.1" xmlns="http://www.w3.org/2000/svg" width="64" height="64" viewBox="0 0 64 64">
<title>bell</title>
<path d="M32.571 60.571q0-0.571-0.571-0.571-2.107 0-3.625-1.518t-1.518-3.625q0-0.571-0.571-0.571t-0.571 0.571q0 2.607 1.839 4.446t4.446 1.839q0.571 0 0.571-0.571zM61.714 50.286q0 1.857-1.357 3.214t-3.214 1.357h-16q0 3.786-2.679 6.464t-6.464 2.679-6.464-2.679-2.679-6.464h-16q-1.857 0-3.214-1.357t-1.357-3.214q1.786-1.5 3.25-3.143t3.036-4.268 2.661-5.661 1.786-7.357 0.696-9.286q0-5.429 4.179-10.089t10.964-5.661q-0.286-0.679-0.286-1.393 0-1.429 1-2.429t2.429-1 2.429 1 1 2.429q0 0.714-0.286 1.393 6.786 1 10.964 5.661t4.179 10.089q0 4.964 0.696 9.286t1.786 7.357 2.661 5.661 3.036 4.268 3.25 3.143z"></path>
</svg>
