<!-- Generated by IcoMoon.io -->
<svg version="1.1" xmlns="http://www.w3.org/2000/svg" width="73" height="64" viewBox="0 0 73 64">
<title>bell-slash</title>
<path d="M55.643 30.429q2.179 12.714 10.643 19.857 0 1.857-1.357 3.214t-3.214 1.357h-16q0 3.786-2.679 6.464t-6.464 2.679-6.446-2.661-2.696-6.446zM36.571 61.143q0.571 0 0.571-0.571t-0.571-0.571q-2.107 0-3.625-1.518t-1.518-3.625q0-0.571-0.571-0.571t-0.571 0.571q0 2.607 1.839 4.446t4.446 1.839zM72.357 4q0.286 0.357 0.268 0.839t-0.375 0.804l-66.857 57.929q-0.357 0.286-0.839 0.25t-0.768-0.393l-3-3.429q-0.286-0.357-0.268-0.839t0.375-0.768l6.643-5.75q-0.679-1.143-0.679-2.357 1.786-1.5 3.25-3.143t3.036-4.268 2.661-5.661 1.786-7.357 0.696-9.286q0-5.429 4.179-10.089t10.964-5.661q-0.286-0.679-0.286-1.393 0-1.429 1-2.429t2.429-1 2.429 1 1 2.429q0 0.714-0.286 1.393 4.429 0.643 7.821 2.946t5.286 5.625l14.929-12.964q0.357-0.286 0.839-0.25t0.768 0.393z"></path>
</svg>
