<!-- Generated by IcoMoon.io -->
<svg version="1.1" xmlns="http://www.w3.org/2000/svg" width="64" height="64" viewBox="0 0 64 64">
<title>captain</title>
<path d="M32 10.135c-12.274 0-22.222 9.788-22.222 21.865 0 12.075 9.948 21.865 22.222 21.865s22.222-9.79 22.222-21.865c0-12.076-9.95-21.865-22.222-21.865zM32 38.409c1.74 0 3.376-0.667 4.608-1.877l4.053 3.989c-2.315 2.277-5.39 3.531-8.661 3.531-6.754 0-12.249-5.406-12.249-12.052s5.495-12.052 12.249-12.052c3.273 0 6.348 1.255 8.661 3.531l-4.053 3.989c-1.23-1.211-2.868-1.877-4.608-1.877-3.593 0-6.516 2.875-6.516 6.411s2.923 6.407 6.516 6.407z"></path>
</svg>
