<!-- Generated by IcoMoon.io -->
<svg version="1.1" xmlns="http://www.w3.org/2000/svg" width="69" height="64" viewBox="0 0 69 64">
<title>caret-inward</title>
<path d="M3.192 7.789c-0.829 0.249-1.542 0.796-1.923 1.459l-0.365 0.663v21.965c0 15.168 0.050 22.114 0.182 22.446 0.249 0.663 0.796 1.21 1.558 1.558 0.812 0.381 1.558 0.398 2.371 0.066 0.763-0.315 22.28-21.733 22.761-22.661 0.348-0.68 0.415-1.674 0.149-2.404-0.199-0.514-22.048-22.479-22.711-22.827-0.58-0.315-1.492-0.431-2.022-0.265zM64.313 7.706c-0.083 0.033-0.381 0.099-0.663 0.166-0.381 0.083-3.282 2.885-11.671 11.239-6.449 6.432-11.256 11.372-11.389 11.671-0.381 0.895-0.298 1.873 0.249 2.719 0.763 1.177 21.866 22.131 22.595 22.446 1.094 0.448 2.371 0.199 3.249-0.63 0.912-0.845 0.862 0.497 0.862-23.358v-22.098l-0.381-0.613c-0.464-0.779-1.028-1.21-1.857-1.442-0.696-0.182-0.729-0.199-0.995-0.099z"></path>
</svg>
