<!-- Generated by IcoMoon.io -->
<svg version="1.1" xmlns="http://www.w3.org/2000/svg" width="64" height="64" viewBox="0 0 64 64">
<title>check</title>
<path d="M59.679 20.214c0 0.893-0.357 1.786-1 2.429l-30.714 30.714c-0.643 0.643-1.536 1-2.429 1s-1.786-0.357-2.429-1l-17.786-17.786c-0.643-0.643-1-1.536-1-2.429s0.357-1.786 1-2.429l4.857-4.857c0.643-0.643 1.536-1 2.429-1s1.786 0.357 2.429 1l10.5 10.536 23.429-23.464c0.643-0.643 1.536-1 2.429-1s1.786 0.357 2.429 1l4.857 4.857c0.643 0.643 1 1.536 1 2.429z"></path>
</svg>
