<!-- Generated by IcoMoon.io -->
<svg version="1.1" xmlns="http://www.w3.org/2000/svg" width="57" height="64" viewBox="0 0 57 64">
<title>chevron-step-forward</title>
<path d="M10.938 0.988c-0.2 0.050-0.488 0.15-0.625 0.238-0.463 0.25-6.8 6.713-6.925 7.063-0.188 0.488-0.175 1.275 0.038 1.75 0.1 0.225 4.237 4.45 9.813 10.025l9.637 9.625-9.688 9.688c-5.4 5.413-9.738 9.837-9.8 10.038-0.188 0.5-0.175 1.413 0.038 1.813 0.25 0.475 6.75 6.938 7.175 7.112 0.463 0.2 1.2 0.2 1.688-0.013 0.238-0.1 6.050-5.837 14.050-13.837 11.825-11.85 13.663-13.738 13.775-14.175 0.163-0.613 0.163-0.637 0-1.25-0.112-0.438-1.95-2.313-13.65-14.037-7.438-7.45-13.688-13.637-13.9-13.762-0.463-0.287-1.125-0.387-1.625-0.275zM42.6 1.25c-0.575 0.175-1.063 0.6-1.337 1.163l-0.263 0.55 0.025 26.863 0.038 26.862 0.288 0.462c0.163 0.25 0.5 0.587 0.75 0.75 0.462 0.288 0.513 0.288 5.087 0.325 3.288 0.025 4.775 0 5.163-0.112 0.638-0.175 1.325-0.888 1.513-1.575 0.1-0.325 0.138-8.688 0.138-27.012 0-25.863 0-26.55-0.237-27-0.313-0.587-0.837-1.075-1.375-1.262-0.5-0.163-9.238-0.175-9.788-0.012z"></path>
</svg>
