<!-- Generated by IcoMoon.io -->
<svg version="1.1" xmlns="http://www.w3.org/2000/svg" width="56" height="64" viewBox="0 0 56 64">
<title>clock</title>
<path d="M27.957 64c-15.415 0-27.957-12.544-27.957-27.96s12.541-27.957 27.957-27.957 27.957 12.541 27.957 27.957-12.541 27.96-27.957 27.96zM27.957 13.382c-12.497 0-22.664 10.167-22.664 22.664s10.167 22.664 22.664 22.664 22.664-10.167 22.664-22.664-10.167-22.664-22.664-22.664zM35.476 0h-14.419v4.975h14.419v-4.975zM28.418 18.407c-9.829 0-17.795 7.966-17.795 17.798 0 9.829 7.966 17.795 17.795 17.795s17.795-7.966 17.795-17.795c0-9.832-7.969-17.798-17.795-17.798zM36.869 44.039l-10.39-7.149v-12.35h2.645v10.961l9.244 6.353-1.499 2.186z"></path>
</svg>
