<!-- Generated by IcoMoon.io -->
<svg version="1.1" xmlns="http://www.w3.org/2000/svg" width="50" height="64" viewBox="0 0 50 64">
<title>close</title>
<path d="M46.357 47.214c0 0.893-0.357 1.786-1 2.429l-4.857 4.857c-0.643 0.643-1.536 1-2.429 1s-1.786-0.357-2.429-1l-10.5-10.5-10.5 10.5c-0.643 0.643-1.536 1-2.429 1s-1.786-0.357-2.429-1l-4.857-4.857c-0.643-0.643-1-1.536-1-2.429s0.357-1.786 1-2.429l10.5-10.5-10.5-10.5c-0.643-0.643-1-1.536-1-2.429s0.357-1.786 1-2.429l4.857-4.857c0.643-0.643 1.536-1 2.429-1s1.786 0.357 2.429 1l10.5 10.5 10.5-10.5c0.643-0.643 1.536-1 2.429-1s1.786 0.357 2.429 1l4.857 4.857c0.643 0.643 1 1.536 1 2.429s-0.357 1.786-1 2.429l-10.5 10.5 10.5 10.5c0.643 0.643 1 1.536 1 2.429z"></path>
</svg>
