<!-- Generated by IcoMoon.io -->
<svg version="1.1" xmlns="http://www.w3.org/2000/svg" width="64" height="64" viewBox="0 0 64 64">
<title>exclamation-triangle</title>
<path d="M36.571 51.393v-6.786q0-0.5-0.339-0.839t-0.804-0.339h-6.857q-0.464 0-0.804 0.339t-0.339 0.839v6.786q0 0.5 0.339 0.839t0.804 0.339h6.857q0.464 0 0.804-0.339t0.339-0.839zM36.5 38.036l0.643-16.393q0-0.429-0.357-0.679-0.464-0.393-0.857-0.393h-7.857q-0.393 0-0.857 0.393-0.357 0.25-0.357 0.75l0.607 16.321q0 0.357 0.357 0.589t0.857 0.232h6.607q0.5 0 0.839-0.232t0.375-0.589zM36 4.679l27.429 50.286q1.25 2.25-0.071 4.5-0.607 1.036-1.661 1.643t-2.268 0.607h-54.857q-1.214 0-2.268-0.607t-1.661-1.643q-1.321-2.25-0.071-4.5l27.429-50.286q0.607-1.107 1.679-1.75t2.321-0.643 2.321 0.643 1.679 1.75z"></path>
</svg>
