<!-- Generated by IcoMoon.io -->
<svg version="1.1" xmlns="http://www.w3.org/2000/svg" width="65" height="64" viewBox="0 0 65 64">
<title>hattrickml-post</title>
<path d="M32.5 0c-17.645 0-32 14.355-32 32s14.355 32 32 32 32-14.355 32-32c0-17.645-14.355-32-32-32zM32.5 60.697c-15.824 0-28.697-12.873-28.697-28.697s12.874-28.697 28.697-28.697 28.697 12.874 28.697 28.697-12.874 28.697-28.697 28.697zM53.83 21.651c0-3.937-3.192-7.128-7.128-7.128h-28.404c-3.937 0-7.128 3.192-7.128 7.128v1.982c0 3.937 3.192 7.128 7.128 7.128h28.404c3.937 0 7.128-3.192 7.128-7.128v-1.982zM51.078 23.633c0 2.417-1.959 4.376-4.376 4.376h-28.404c-2.417 0-4.376-1.959-4.376-4.376v-1.982c0-2.417 1.959-4.376 4.376-4.376h28.404c2.417 0 4.376 1.959 4.376 4.376v1.982zM53.83 40.092c0-3.937-3.192-7.128-7.128-7.128h-28.404c-3.937 0-7.128 3.192-7.128 7.128v1.981c0 3.937 3.192 7.128 7.128 7.128h28.404c3.937 0 7.128-3.192 7.128-7.128v-1.981zM51.078 42.073c0 2.417-1.959 4.376-4.376 4.376h-28.404c-2.417 0-4.376-1.959-4.376-4.376v-1.982c0-2.417 1.959-4.376 4.376-4.376h28.404c2.417 0 4.376 1.959 4.376 4.376v1.982zM19.702 19.477h25.321v2.752h-25.321v-2.752zM19.702 23.33h10.734v2.752h-10.734v-2.752zM19.702 37.917h25.321v2.752h-25.321v-2.752zM19.702 41.771h18.991v2.752h-18.991v-2.752z"></path>
</svg>
