<!-- Generated by IcoMoon.io -->
<svg version="1.1" xmlns="http://www.w3.org/2000/svg" width="59" height="64" viewBox="0 0 59 64">
<title>home</title>
<path d="M50.286 35.429v17.143q0 0.929-0.679 1.607t-1.607 0.679h-13.714v-13.714h-9.143v13.714h-13.714q-0.929 0-1.607-0.679t-0.679-1.607v-17.143q0-0.036 0.018-0.107t0.018-0.107l20.536-16.929 20.536 16.929q0.036 0.071 0.036 0.214zM58.25 32.964l-2.214 2.643q-0.286 0.321-0.75 0.393h-0.107q-0.464 0-0.75-0.25l-24.714-20.607-24.714 20.607q-0.429 0.286-0.857 0.25-0.464-0.071-0.75-0.393l-2.214-2.643q-0.286-0.357-0.25-0.839t0.393-0.768l25.679-21.393q1.143-0.929 2.714-0.929t2.714 0.929l8.714 7.286v-6.964q0-0.5 0.321-0.821t0.821-0.321h6.857q0.5 0 0.821 0.321t0.321 0.821v14.571l7.821 6.5q0.357 0.286 0.393 0.768t-0.25 0.839z"></path>
</svg>
