<!-- Generated by IcoMoon.io -->
<svg version="1.1" xmlns="http://www.w3.org/2000/svg" width="23" height="64" viewBox="0 0 23 64">
<title>info-2</title>
<path d="M22.857 48v4.571q0 0.929-0.679 1.607t-1.607 0.679h-18.286q-0.929 0-1.607-0.679t-0.679-1.607v-4.571q0-0.929 0.679-1.607t1.607-0.679h2.286v-13.714h-2.286q-0.929 0-1.607-0.679t-0.679-1.607v-4.571q0-0.929 0.679-1.607t1.607-0.679h13.714q0.929 0 1.607 0.679t0.679 1.607v20.571h2.286q0.929 0 1.607 0.679t0.679 1.607zM18.286 6.857v6.857q0 0.929-0.679 1.607t-1.607 0.679h-9.143q-0.929 0-1.607-0.679t-0.679-1.607v-6.857q0-0.929 0.679-1.607t1.607-0.679h9.143q0.929 0 1.607 0.679t0.679 1.607z"></path>
</svg>
