<!-- Generated by IcoMoon.io -->
<svg version="1.1" xmlns="http://www.w3.org/2000/svg" width="55" height="64" viewBox="0 0 55 64">
<title>info</title>
<path d="M36.571 49.143v-5.714q0-0.5-0.321-0.821t-0.821-0.321h-3.429v-18.286q0-0.5-0.321-0.821t-0.821-0.321h-11.429q-0.5 0-0.821 0.321t-0.321 0.821v5.714q0 0.5 0.321 0.821t0.821 0.321h3.429v11.429h-3.429q-0.5 0-0.821 0.321t-0.321 0.821v5.714q0 0.5 0.321 0.821t0.821 0.321h16q0.5 0 0.821-0.321t0.321-0.821zM32 17.143v-5.714q0-0.5-0.321-0.821t-0.821-0.321h-6.857q-0.5 0-0.821 0.321t-0.321 0.821v5.714q0 0.5 0.321 0.821t0.821 0.321h6.857q0.5 0 0.821-0.321t0.321-0.821zM54.857 32q0 7.464-3.679 13.768t-9.982 9.982-13.768 3.679-13.768-3.679-9.982-9.982-3.679-13.768 3.679-13.768 9.982-9.982 13.768-3.679 13.768 3.679 9.982 9.982 3.679 13.768z"></path>
</svg>
