<!-- Generated by IcoMoon.io -->
<svg version="1.1" xmlns="http://www.w3.org/2000/svg" width="64" height="64" viewBox="0 0 64 64">
<title>longshot</title>
<path d="M64 29.6h-6.62c-1.14-12.152-10.832-21.84-22.98-22.98v-6.62h-4.8v6.62c-12.152 1.14-21.84 10.828-22.98 22.98h-6.62v4.8h6.62c1.14 12.148 10.828 21.84 22.98 22.98v6.62h4.8v-6.62c12.148-1.14 21.84-10.832 22.98-22.98h6.62v-4.8zM53.256 29.6h-18.856v-18.856c9.932 1.116 17.74 8.924 18.856 18.856zM29.6 10.744v18.856h-18.856c1.116-9.932 8.924-17.74 18.856-18.856zM10.744 34.4h18.856v18.86c-9.932-1.12-17.74-8.928-18.856-18.86zM34.4 53.256v-18.856h18.86c-1.12 9.932-8.928 17.74-18.86 18.856z"></path>
</svg>
