<!-- Generated by IcoMoon.io -->
<svg version="1.1" xmlns="http://www.w3.org/2000/svg" width="66" height="64" viewBox="0 0 66 64">
<title>match</title>
<path d="M51.92 0v34.702c0 9.124-18.743 14.081-18.78 14.090v0h-0.006c-0.038-0.009-18.78-4.966-18.78-14.090h-0.006v-34.702h37.573zM64.132 14.723c-1.387-3.961-2.63-5.88-2.618-5.883-0.009 0 0.642 2.17 1.23 6.187 0.52 3.977 1.14 9.963-0.564 16.792-0.861 3.388-2.427 6.901-4.969 10.076-2.527 3.181-6.049 5.965-10.311 8.153-4.014 2.085-8.651 3.682-13.645 4.91-5.035-1.212-9.722-2.784-13.777-4.875-4.258-2.173-7.806-4.935-10.342-8.116-2.555-3.162-4.127-6.682-4.997-10.070-1.71-6.838-1.065-12.841-0.514-16.817 0.611-4.017 1.287-6.193 1.271-6.19 0.016 0-1.237 1.891-2.643 5.805-1.315 3.886-3.065 9.988-1.844 17.879 0.626 3.898 2.22 8.197 5.151 12.036 2.909 3.848 7.111 7.061 11.942 9.252 3.040 1.39 6.328 2.395 9.738 3.115-1.040 0.432-2.067 0.861-3.097 1.384-2.586 1.375-5.329 3.081-6.863 5.724 2.023-2.211 4.809-3.266 7.465-4.171 2.671-0.852 5.495-1.484 8.028-1.863 0.194-0.022 0.382-0.063 0.573-0.081 0.031 0.003 0.056 0.009 0.078 0.013 2.561 0.36 5.404 0.977 8.097 1.825 2.677 0.895 5.508 1.929 7.596 4.186-1.581-2.661-4.324-4.34-6.913-5.702-0.986-0.498-1.976-0.905-2.962-1.318 3.297-0.72 6.472-1.697 9.425-3.053 4.825-2.189 9.049-5.373 11.967-9.206 2.956-3.823 4.581-8.122 5.235-12.030 1.271-7.89-0.445-14.040-1.738-17.963z"></path>
</svg>
