<!-- Generated by IcoMoon.io -->
<svg version="1.1" xmlns="http://www.w3.org/2000/svg" width="64" height="64" viewBox="0 0 64 64">
<title>mo-analysis</title>
<path d="M32 3.2c15.88 0 28.8 12.92 28.8 28.8s-12.92 28.8-28.8 28.8-28.8-12.92-28.8-28.8 12.92-28.8 28.8-28.8zM32 0c-17.672 0-32 14.328-32 32s14.328 32 32 32 32-14.328 32-32-14.328-32-32-32v0zM32 12.8c10.588 0 19.2 8.612 19.2 19.2s-8.612 19.2-19.2 19.2-19.2-8.612-19.2-19.2 8.612-19.2 19.2-19.2zM32 9.6c-12.369 0-22.4 10.030-22.4 22.4s10.031 22.4 22.4 22.4 22.4-10.030 22.4-22.4-10.031-22.4-22.4-22.4v0zM32 22.4c5.294 0 9.6 4.306 9.6 9.6s-4.306 9.6-9.6 9.6-9.6-4.306-9.6-9.6 4.306-9.6 9.6-9.6zM32 19.2c-7.069 0-12.8 5.731-12.8 12.8s5.731 12.8 12.8 12.8 12.8-5.731 12.8-12.8-5.731-12.8-12.8-12.8v0z"></path>
</svg>
