<!-- Generated by IcoMoon.io -->
<svg version="1.1" xmlns="http://www.w3.org/2000/svg" width="64" height="64" viewBox="0 0 64 64">
<title>mo-load</title>
<path d="M32 64c-17.645 0-32-14.355-32-31.998 0-17.645 14.355-32.002 32-32.002s32 14.357 32 32.002c0 17.643-14.355 31.998-32 31.998zM32 4.924c-14.931 0-27.076 12.147-27.076 27.078 0 14.929 12.145 27.075 27.076 27.075s27.076-12.145 27.076-27.075c0-14.931-12.145-27.078-27.076-27.078zM52.677 32.002c0 11.419-9.258 20.675-20.677 20.675s-20.677-9.257-20.677-20.675 9.258-20.678 20.677-20.678 20.677 9.259 20.677 20.678z"></path>
</svg>
