<!-- Generated by IcoMoon.io -->
<svg version="1.1" xmlns="http://www.w3.org/2000/svg" width="64" height="64" viewBox="0 0 64 64">
<title>mo-orders</title>
<path d="M32 0c-17.645 0-32 14.357-32 32.002 0 17.643 14.355 31.998 32 31.998s32-14.355 32-31.998c0-17.645-14.355-32.002-32-32.002zM46.406 54.886v-25.637c1.527 0.643 2.947 1.389 4.24 2.217l4.985-4.979c-2.175-2.631-5.361-4.858-9.225-6.459-4.158-1.722-9.104-2.719-14.406-2.719s-10.248 0.997-14.405 2.719c-3.865 1.601-7.053 3.828-9.225 6.459l4.982 4.979c1.294-0.828 2.713-1.573 4.243-2.217v25.637c-7.598-4.801-12.671-13.252-12.671-22.885 0-14.931 12.145-27.078 27.076-27.078s27.076 12.147 27.076 27.078c0 9.633-5.072 18.083-12.67 22.885z"></path>
</svg>
