<!-- Generated by IcoMoon.io -->
<svg version="1.1" xmlns="http://www.w3.org/2000/svg" width="64" height="64" viewBox="0 0 64 64">
<title>mo-players</title>
<path d="M51.509 7.789c-5.632-2.332-12.33-3.682-19.509-3.682s-13.877 1.35-19.509 3.682c-5.233 2.168-9.549 5.183-12.491 8.745l6.746 6.743c1.752-1.121 3.674-2.131 5.744-3.001v39.616h39.019v-39.616c2.067 0.87 3.989 1.88 5.742 3.001l6.749-6.743c-2.945-3.562-7.261-6.577-12.491-8.745zM41.745 30.048l-2.184 2.046 2.184 1.952v13.108l-2.789 3.441h-12.83l-2.789-3.487v-7.206h5.996v5.115h6.183v-9.67h-5.021v-5.578h5.021v-7.158h-6.183v3.626h-5.996v-5.811l2.789-3.393h12.83l2.789 3.344v9.67z"></path>
</svg>
