<!-- Generated by IcoMoon.io -->
<svg version="1.1" xmlns="http://www.w3.org/2000/svg" width="64" height="64" viewBox="0 0 64 64">
<title>mo-penalties</title>
<path d="M15.659 18.834l-0.17-0.525h-2.723c0 0 0 0.002-0.002 0.002-0.668 0.937-1.268 1.925-1.796 2.957-0.009 0.017-0.017 0.035-0.026 0.052-0.519 1.023-0.971 2.088-1.338 3.19-0.003 0.007-0.006 0.013-0.009 0.020-0.362 1.087-0.642 2.211-0.844 3.362-0.016 0.084-0.025 0.169-0.039 0.252-0.188 1.139-0.304 2.302-0.323 3.49l2.241 1.627 0.414-0.3 7.449-5.41-2.835-8.717zM55.329 28.41c-0.025-0.16-0.046-0.322-0.074-0.48-0.197-1.129-0.462-2.235-0.813-3.303-0.006-0.016-0.013-0.032-0.019-0.049-0.365-1.1-0.812-2.163-1.33-3.186-0.016-0.033-0.032-0.068-0.048-0.101-0.532-1.040-1.136-2.038-1.81-2.983h-2.442l-0.255 0.788-2.745 8.456 7.863 5.708 1.964-1.428c-0.007-1.165-0.121-2.305-0.293-3.422zM49.123 44.124h-8.933l-3.003 9.242 1.703 1.237c1.102-0.336 2.16-0.767 3.187-1.253 0.143-0.068 0.286-0.136 0.427-0.206 2.106-1.051 4.038-2.397 5.729-4.001 0.004-0.004 0.010-0.009 0.014-0.014 0.871-0.828 1.679-1.721 2.417-2.673l0.002-0.002-0.759-2.331h-0.785zM24.093 44.124h-9.716l-0.844 2.595c0 0.002 0.002 0.002 0.002 0.002 0.718 0.9 1.507 1.739 2.347 2.524 0.073 0.069 0.149 0.136 0.224 0.203 1.68 1.532 3.58 2.822 5.651 3.82 0.098 0.048 0.195 0.095 0.293 0.141 1.053 0.49 2.14 0.914 3.27 1.248 0.002 0 0.002 0 0.002 0l1.78-1.292-0.34-1.049-2.665-8.192zM39.916 12.556l0.089-0.065-0.995-3.062c-0.984-0.306-2.003-0.524-3.037-0.7-0.255-0.043-0.511-0.082-0.769-0.117-1.050-0.143-2.114-0.242-3.203-0.242-1.067 0-2.112 0.092-3.14 0.232-0.206 0.027-0.41 0.062-0.614 0.094-0.997 0.163-1.98 0.369-2.934 0.649-0.004 0.002-0.009 0.003-0.011 0.003l-1.021 3.144 7.865 5.71 7.771-5.647zM40.637 29.352l-8.636-6.274-8.636 6.274 3.3 10.153h10.673zM31.999 0.001c-17.645 0-31.999 14.356-31.999 32.001 0 17.643 14.355 31.998 31.999 31.998s32.001-14.355 32.001-31.998c0-17.645-14.356-32.001-32.001-32.001zM31.999 59.075c-14.93 0-27.075-12.145-27.075-27.074 0-14.93 12.145-27.077 27.075-27.077s27.077 12.147 27.077 27.077c0 14.929-12.147 27.074-27.077 27.074z"></path>
</svg>
