<!-- Generated by IcoMoon.io -->
<svg version="1.1" xmlns="http://www.w3.org/2000/svg" width="64" height="64" viewBox="0 0 64 64">
<title>mo-review</title>
<path d="M54.019 33.738c0 13.65-11.106 24.757-24.758 24.757s-24.758-11.107-24.758-24.757c0-13.652 11.106-24.76 24.758-24.76 4.164 0 8.084 1.042 11.532 2.867l3.064-3.432c-4.302-2.49-9.278-3.938-14.595-3.938-16.134 0-29.261 13.128-29.261 29.262 0 16.132 13.126 29.259 29.261 29.259s29.261-13.128 29.261-29.259c0-3.658-0.704-7.148-1.936-10.379l-3.462 3.875c0.567 2.076 0.896 4.249 0.896 6.504zM29.422 44.046l-13.94-12.545 4.336-4.819 9.103 8.192 30.245-33.873 4.835 4.318z"></path>
</svg>
