<!-- Generated by IcoMoon.io -->
<svg version="1.1" xmlns="http://www.w3.org/2000/svg" width="64" height="64" viewBox="0 0 64 64">
<title>mo-submit</title>
<path d="M35.506 3.506c-12.636 0-23.363 8.276-27.084 19.686h4.406c3.541-9.082 12.359-15.545 22.678-15.545 13.428 0 24.352 10.925 24.352 24.354 0 13.428-10.925 24.351-24.352 24.351-10.319 0-19.139-6.463-22.678-15.545h-4.407c3.721 11.411 14.449 19.686 27.085 19.686 15.711 0 28.494-12.782 28.494-28.493 0-15.712-12.782-28.495-28.494-28.495zM48.718 31.959l-16.046-16.053v11.69h-32.672v8.808h32.672v11.605z"></path>
</svg>
