<!-- Generated by IcoMoon.io -->
<svg version="1.1" xmlns="http://www.w3.org/2000/svg" width="64" height="64" viewBox="0 0 64 64">
<title>mo-tactics</title>
<path d="M12.973 25.946c-7.152 0-12.973-5.819-12.973-12.973s5.821-12.973 12.973-12.973 12.973 5.819 12.973 12.973-5.821 12.973-12.973 12.973zM12.973 5.189c-4.291 0-7.784 3.491-7.784 7.784s3.493 7.784 7.784 7.784 7.784-3.491 7.784-7.784-3.493-7.784-7.784-7.784zM51.027 25.946c-7.152 0-12.973-5.819-12.973-12.973s5.821-12.973 12.973-12.973 12.973 5.819 12.973 12.973-5.821 12.973-12.973 12.973zM51.027 5.189c-4.291 0-7.784 3.491-7.784 7.784s3.493 7.784 7.784 7.784 7.784-3.491 7.784-7.784-3.493-7.784-7.784-7.784zM51.027 38.054c-7.152 0-12.973 5.819-12.973 12.973s5.821 12.973 12.973 12.973 12.973-5.819 12.973-12.973-5.821-12.973-12.973-12.973zM12.973 64c-7.152 0-12.973-5.819-12.973-12.973s5.821-12.973 12.973-12.973 12.973 5.819 12.973 12.973-5.821 12.973-12.973 12.973zM12.973 43.243c-4.291 0-7.784 3.491-7.784 7.784s3.493 7.784 7.784 7.784 7.784-3.491 7.784-7.784-3.493-7.784-7.784-7.784z"></path>
</svg>
