<!-- Generated by IcoMoon.io -->
<svg version="1.1" xmlns="http://www.w3.org/2000/svg" width="64" height="64" viewBox="0 0 64 64">
<title>mo-target</title>
<path d="M42.639 32c0 5.873-4.766 10.639-10.639 10.639s-10.639-4.766-10.639-10.639 4.766-10.639 10.639-10.639 10.639 4.766 10.639 10.639zM32 53.818c-12.031 0-21.818-9.787-21.818-21.818s9.787-21.818 21.818-21.818 21.818 9.787 21.818 21.818-9.787 21.818-21.818 21.818zM32 13.922c-9.969 0-18.078 8.109-18.078 18.078s8.109 18.078 18.078 18.078 18.078-8.109 18.078-18.078-8.109-18.078-18.078-18.078zM32 64c-17.645 0-32-14.355-32-32s14.355-32 32-32 32 14.355 32 32-14.355 32-32 32zM32 5.486c-14.619 0-26.514 11.895-26.514 26.514s11.895 26.514 26.514 26.514 26.514-11.895 26.514-26.514-11.895-26.514-26.514-26.514z"></path>
</svg>
