<!-- Generated by IcoMoon.io -->
<svg version="1.1" xmlns="http://www.w3.org/2000/svg" width="58" height="64" viewBox="0 0 58 64">
<title>mother-club</title>
<path d="M29 64c-0.551 0-1.078-0.17-1.517-0.471-26.935-10.302-26.928-27.539-26.923-37.862l0.009-22.99c0-1.478 1.2-2.677 2.678-2.677h51.503c1.478 0 2.678 1.198 2.678 2.677l0.009 22.99c0.005 10.324 0.013 27.56-26.922 37.863-0.439 0.301-0.966 0.47-1.517 0.47zM5.926 5.356l-0.008 20.313c-0.004 10.030-0.012 23.721 23.083 32.705 23.095-8.984 23.088-22.675 23.083-32.705l-0.008-20.313h-46.149zM29.001 45.572c0 0 13.152-8.939 15.814-17.77 2.114-7.006-2.098-13.151-7.359-13.339s-8.454 3.57-8.454 7.703c0-4.133-3.193-7.891-8.454-7.703s-9.474 6.332-7.361 13.339c2.663 8.831 15.815 17.77 15.815 17.77z"></path>
</svg>
