<!-- Generated by IcoMoon.io -->
<svg version="1.1" xmlns="http://www.w3.org/2000/svg" width="64" height="64" viewBox="0 0 64 64">
<title>pieces</title>
<path d="M47.068 41.422l-7.067 1.717-3.582 6.119c-1.415 0.37-2.894 0.562-4.418 0.562-1.525 0-3.006-0.192-4.421-0.562l-3.579-6.119-7.070-1.717c-1.54-2.462-2.496-5.317-2.676-8.377l4.631-5.278-0.437-7.268c1.874-2.215 4.279-3.97 7.012-5.061l6.54 2.748 6.537-2.748c2.732 1.092 5.136 2.846 7.012 5.061l-0.437 7.268 4.635 5.278c-0.181 3.060-1.14 5.915-2.679 8.377zM32.002 9.723c-12.224 0-22.224 10.025-22.224 22.276 0 12.254 10 22.279 22.224 22.279 12.22 0 22.22-10.025 22.22-22.279 0-12.251-10-22.276-22.22-22.276zM23.113 29.995l3.554 10.469h10.667l3.557-10.469-8.889-6.462-8.889 6.462z"></path>
</svg>
