<!-- Generated by IcoMoon.io -->
<svg version="1.1" xmlns="http://www.w3.org/2000/svg" width="55" height="64" viewBox="0 0 55 64">
<title>plus-circle</title>
<path d="M43.429 34.286v-4.571q0-0.929-0.679-1.607t-1.607-0.679h-9.143v-9.143q0-0.929-0.679-1.607t-1.607-0.679h-4.571q-0.929 0-1.607 0.679t-0.679 1.607v9.143h-9.143q-0.929 0-1.607 0.679t-0.679 1.607v4.571q0 0.929 0.679 1.607t1.607 0.679h9.143v9.143q0 0.929 0.679 1.607t1.607 0.679h4.571q0.929 0 1.607-0.679t0.679-1.607v-9.143h9.143q0.929 0 1.607-0.679t0.679-1.607zM54.857 32q0 7.464-3.679 13.768t-9.982 9.982-13.768 3.679-13.768-3.679-9.982-9.982-3.679-13.768 3.679-13.768 9.982-9.982 13.768-3.679 13.768 3.679 9.982 9.982 3.679 13.768z"></path>
</svg>
