<!-- Generated by IcoMoon.io -->
<svg version="1.1" xmlns="http://www.w3.org/2000/svg" width="55" height="64" viewBox="0 0 55 64">
<title>power</title>
<path d="M54.857 32q0 5.571-2.179 10.643t-5.857 8.75-8.75 5.857-10.643 2.179-10.643-2.179-8.75-5.857-5.857-8.75-2.179-10.643q0-6.5 2.875-12.25t8.089-9.643q1.536-1.143 3.411-0.893t2.982 1.786q1.143 1.5 0.875 3.375t-1.768 3.018q-3.5 2.643-5.411 6.464t-1.911 8.143q0 3.714 1.446 7.089t3.911 5.839 5.839 3.911 7.089 1.446 7.089-1.446 5.839-3.911 3.911-5.839 1.446-7.089q0-4.321-1.911-8.143t-5.411-6.464q-1.5-1.143-1.768-3.018t0.875-3.375q1.107-1.536 3-1.786t3.393 0.893q5.214 3.893 8.089 9.643t2.875 12.25zM32 4.571v22.857q0 1.857-1.357 3.214t-3.214 1.357-3.214-1.357-1.357-3.214v-22.857q0-1.857 1.357-3.214t3.214-1.357 3.214 1.357 1.357 3.214z"></path>
</svg>
