<!-- Generated by IcoMoon.io -->
<svg version="1.1" xmlns="http://www.w3.org/2000/svg" width="64" height="64" viewBox="0 0 64 64">

	<defs id="colors">
		<linearGradient id="lineColor">
			<stop offset="0" stop-color="#FF"/>
			<stop offset="1" stop-color="#FF"/>
		</linearGradient>
	</defs>

<title>reorganise</title>
<path d="M47.884 8.388c-13.016-6.728-29.084-1.612-35.816 11.4-1.468 2.836-2.336 5.876-2.72 8.988h-9.348l14.844 17.724 14.828-17.724h-12.3c0.328-1.832 0.928-3.616 1.804-5.304 4.7-9.092 15.924-12.68 25.036-7.972 9.092 4.712 12.664 15.948 7.96 25.044-2.28 4.416-6.14 7.664-10.868 9.168-4.736 1.508-9.764 1.072-14.168-1.204l-3.68 7.1c3.896 2.016 8.064 2.968 12.176 2.968 9.616 0 18.92-5.24 23.64-14.368 6.736-13.008 1.628-29.076-11.388-35.82z" fill="green" stroke="green" ></path>
</svg>
