<!-- Generated by IcoMoon.io -->
<svg version="1.1" xmlns="http://www.w3.org/2000/svg" width="55" height="64" viewBox="0 0 55 64">
<title>save</title>
<path d="M13.714 54.857h27.429v-13.714h-27.429v13.714zM45.714 54.857h4.571v-32q0-0.5-0.357-1.375t-0.714-1.232l-10.036-10.036q-0.357-0.357-1.214-0.714t-1.393-0.357v14.857q0 1.429-1 2.429t-2.429 1h-20.571q-1.429 0-2.429-1t-1-2.429v-14.857h-4.571v45.714h4.571v-14.857q0-1.429 1-2.429t2.429-1h29.714q1.429 0 2.429 1t1 2.429v14.857zM32 21.714v-11.429q0-0.464-0.339-0.804t-0.804-0.339h-6.857q-0.464 0-0.804 0.339t-0.339 0.804v11.429q0 0.464 0.339 0.804t0.804 0.339h6.857q0.464 0 0.804-0.339t0.339-0.804zM54.857 22.857v33.143q0 1.429-1 2.429t-2.429 1h-48q-1.429 0-2.429-1t-1-2.429v-48q0-1.429 1-2.429t2.429-1h33.143q1.429 0 3.143 0.714t2.714 1.714l10 10q1 1 1.714 2.714t0.714 3.143z"></path>
</svg>
