<!-- Generated by IcoMoon.io -->
<svg version="1.1" xmlns="http://www.w3.org/2000/svg" width="59" height="64" viewBox="0 0 59 64">
<title>search</title>
<path d="M41.143 29.714q0-6.607-4.696-11.304t-11.304-4.696-11.304 4.696-4.696 11.304 4.696 11.304 11.304 4.696 11.304-4.696 4.696-11.304zM59.429 59.429q0 1.857-1.357 3.214t-3.214 1.357q-1.929 0-3.214-1.357l-12.25-12.214q-6.393 4.429-14.25 4.429-5.107 0-9.768-1.982t-8.036-5.357-5.357-8.036-1.982-9.768 1.982-9.768 5.357-8.036 8.036-5.357 9.768-1.982 9.768 1.982 8.036 5.357 5.357 8.036 1.982 9.768q0 7.857-4.429 14.25l12.25 12.25q1.321 1.321 1.321 3.214z"></path>
</svg>
