<!-- Generated by IcoMoon.io -->
<svg version="1.1" xmlns="http://www.w3.org/2000/svg" width="55" height="64" viewBox="0 0 55 64">
<title>settings</title>
<path d="M36.571 32q0-3.786-2.679-6.464t-6.464-2.679-6.464 2.679-2.679 6.464 2.679 6.464 6.464 2.679 6.464-2.679 2.679-6.464zM54.857 28.107v7.929q0 0.429-0.286 0.821t-0.714 0.464l-6.607 1q-0.679 1.929-1.393 3.25 1.25 1.786 3.821 4.929 0.357 0.429 0.357 0.893t-0.321 0.821q-0.964 1.321-3.536 3.857t-3.357 2.536q-0.429 0-0.929-0.321l-4.929-3.857q-1.571 0.821-3.25 1.357-0.571 4.857-1.036 6.643-0.25 1-1.286 1h-7.929q-0.5 0-0.875-0.304t-0.411-0.768l-1-6.571q-1.75-0.571-3.214-1.321l-5.036 3.821q-0.357 0.321-0.893 0.321-0.5 0-0.893-0.393-4.5-4.071-5.893-6-0.25-0.357-0.25-0.821 0-0.429 0.286-0.821 0.536-0.75 1.821-2.375t1.929-2.518q-0.964-1.786-1.464-3.536l-6.536-0.964q-0.464-0.071-0.75-0.446t-0.286-0.839v-7.929q0-0.429 0.286-0.821t0.679-0.464l6.643-1q0.5-1.643 1.393-3.286-1.429-2.036-3.821-4.929-0.357-0.429-0.357-0.857 0-0.357 0.321-0.821 0.929-1.286 3.518-3.839t3.375-2.554q0.464 0 0.929 0.357l4.929 3.821q1.571-0.821 3.25-1.357 0.571-4.857 1.036-6.643 0.25-1 1.286-1h7.929q0.5 0 0.875 0.304t0.411 0.768l1 6.571q1.75 0.571 3.214 1.321l5.071-3.821q0.321-0.321 0.857-0.321 0.464 0 0.893 0.357 4.607 4.25 5.893 6.071 0.25 0.286 0.25 0.786 0 0.429-0.286 0.821-0.536 0.75-1.821 2.375t-1.929 2.518q0.929 1.786 1.464 3.5l6.536 1q0.464 0.071 0.75 0.446t0.286 0.839z"></path>
</svg>
