<!-- Generated by IcoMoon.io -->
<svg version="1.1" xmlns="http://www.w3.org/2000/svg" width="37" height="64" viewBox="0 0 37 64">
<title>sort</title>
<path d="M36.571 38.857q0 0.929-0.679 1.607l-16 16q-0.679 0.679-1.607 0.679t-1.607-0.679l-16-16q-0.679-0.679-0.679-1.607t0.679-1.607 1.607-0.679h32q0.929 0 1.607 0.679t0.679 1.607zM36.571 25.143q0 0.929-0.679 1.607t-1.607 0.679h-32q-0.929 0-1.607-0.679t-0.679-1.607 0.679-1.607l16-16q0.679-0.679 1.607-0.679t1.607 0.679l16 16q0.679 0.679 0.679 1.607z"></path>
</svg>
