<!-- Generated by IcoMoon.io -->
<svg version="1.1" xmlns="http://www.w3.org/2000/svg" width="64" height="64" viewBox="0 0 64 64">
<title>speciality-8</title>
<path d="M54.677 44.91c-1.738 0-3.336 0.599-4.611 1.593l-6.166-3.877c0.56-1.459 0.87-3.041 0.87-4.695 0-3.44-1.331-6.575-3.502-8.921l5.022-6.914c0.661 0.191 1.357 0.298 2.079 0.298 4.144 0 7.516-3.371 7.516-7.516s-3.371-7.516-7.516-7.516-7.516 3.372-7.516 7.516c0 1.558 0.477 3.008 1.293 4.21l-5.018 6.907c-1.677-0.776-3.541-1.213-5.506-1.213-0.875 0-1.73 0.088-2.557 0.252l-3.271-7.919c1.505-1.376 2.457-3.348 2.457-5.542 0-4.144-3.372-7.516-7.516-7.516s-7.516 3.372-7.516 7.516c0 4.145 3.372 7.516 7.516 7.516 0.111 0 0.218-0.012 0.329-0.017l3.272 7.92c-3.529 2.36-5.859 6.381-5.859 10.937 0 0.532 0.035 1.055 0.097 1.57l-3.339 1.091c-1.378-1.757-3.513-2.892-5.913-2.892-4.144 0-7.516 3.371-7.516 7.516s3.372 7.516 7.516 7.516c4.063 0 7.375-3.242 7.504-7.274l3.34-1.091c2.257 4.002 6.546 6.711 11.458 6.711 3.757 0 7.148-1.587 9.547-4.122l6.165 3.877c-0.112 0.513-0.173 1.045-0.173 1.591 0 4.145 3.371 7.516 7.516 7.516s7.517-3.371 7.517-7.516c-0.002-4.143-3.374-7.514-7.519-7.514zM18.339 11.575c0-1.321 1.075-2.395 2.396-2.395s2.395 1.075 2.395 2.395c0 1.321-1.075 2.396-2.395 2.396s-2.396-1.075-2.396-2.396zM9.321 47.613c-1.322 0-2.396-1.075-2.396-2.396s1.075-2.396 2.396-2.396c1.322 0 2.396 1.075 2.396 2.396s-1.075 2.396-2.396 2.396zM48.369 12.483c1.321 0 2.395 1.075 2.395 2.396s-1.075 2.396-2.395 2.396c-1.321 0-2.396-1.075-2.396-2.396s1.075-2.396 2.396-2.396zM31.622 45.96c-4.426 0-8.027-3.601-8.027-8.027s3.601-8.027 8.027-8.027 8.027 3.601 8.027 8.027c0 4.425-3.601 8.027-8.027 8.027zM54.677 54.822c-1.322 0-2.396-1.075-2.396-2.396s1.075-2.396 2.396-2.396c1.322 0 2.397 1.075 2.397 2.396s-1.075 2.396-2.397 2.396z"></path>
</svg>
