<!-- Generated by IcoMoon.io -->
<svg version="1.1" xmlns="http://www.w3.org/2000/svg" width="64" height="64" viewBox="0 0 64 64">
<title>speciality-6</title>
<path d="M35.669 55.769c-0.12 0-0.242-0.009-0.364-0.026-1.091-0.156-1.959-0.992-2.156-2.077l-5.746-31.628-4.698 16.525c-0.313 1.099-1.318 1.911-2.462 1.911h-11.496v-5.12h9.565l7.183-25.239c0.327-1.145 1.39-1.935 2.586-1.881 1.189 0.059 2.18 0.916 2.393 2.087l6.341 34.889 4.276-8.49c0.435-0.867 1.32-1.365 2.289-1.365h11.873v5.12h-10.291l-7.005 13.935c-0.438 0.873-1.33 1.359-2.288 1.359z"></path>
</svg>
