<!-- Generated by IcoMoon.io -->
<svg version="1.1" xmlns="http://www.w3.org/2000/svg" width="64" height="64" viewBox="0 0 64 64">
<title>speciality-3</title>
<path d="M58.097 26.26l-0.009-21.164c-0-1.357-1.101-2.524-2.458-2.524h-47.261c-1.357 0-2.457 1.167-2.458 2.524l-0.009 21.13c-0.004 9.474-0.011 25.307 24.705 34.762 0.403 0.276 0.887 0.44 1.392 0.44s0.989-0.151 1.392-0.428c24.716-9.454 24.71-25.266 24.705-34.74zM10.818 26.194l0.008-18.707h14.778l-8.739 24.986h15.995l-6.805 20.976c-15.243-8.118-15.241-19.008-15.237-27.254zM32 56.273c-1.897-0.738-3.621-1.434-5.193-2.235l21.147-29.348h-16.671l13.155-17.203h8.736l0.008 18.707c0.004 9.204 0.011 21.834-21.182 30.079z"></path>
</svg>
