<!-- Generated by IcoMoon.io -->
<svg version="1.1" xmlns="http://www.w3.org/2000/svg" width="55" height="64" viewBox="0 0 55 64">
<title>toggle-right</title>
<path d="M38.857 32q0 1.179-0.964 1.857l-16 11.429q-1.107 0.821-2.357 0.179-1.25-0.607-1.25-2.036v-22.857q0-1.429 1.25-2.036 1.25-0.643 2.357 0.179l16 11.429q0.964 0.679 0.964 1.857zM45.714 49.143v-34.286q0-0.5-0.321-0.821t-0.821-0.321h-34.286q-0.5 0-0.821 0.321t-0.321 0.821v34.286q0 0.5 0.321 0.821t0.821 0.321h34.286q0.5 0 0.821-0.321t0.321-0.821zM54.857 14.857v34.286q0 4.25-3.018 7.268t-7.268 3.018h-34.286q-4.25 0-7.268-3.018t-3.018-7.268v-34.286q0-4.25 3.018-7.268t7.268-3.018h34.286q4.25 0 7.268 3.018t3.018 7.268z"></path>
</svg>
