<!-- Generated by IcoMoon.io -->
<svg version="1.1" xmlns="http://www.w3.org/2000/svg" width="55" height="64" viewBox="0 0 55 64">
<title>toggle-left</title>
<path d="M36.571 20.571v22.857q0 0.929-0.679 1.607t-1.607 0.679q-0.714 0-1.321-0.429l-16-11.429q-0.964-0.679-0.964-1.857t0.964-1.857l16-11.429q0.607-0.429 1.321-0.429 0.929 0 1.607 0.679t0.679 1.607zM45.714 49.143v-34.286q0-0.464-0.339-0.804t-0.804-0.339h-34.286q-0.464 0-0.804 0.339t-0.339 0.804v34.286q0 0.464 0.339 0.804t0.804 0.339h34.286q0.464 0 0.804-0.339t0.339-0.804zM54.857 14.857v34.286q0 4.25-3.018 7.268t-7.268 3.018h-34.286q-4.25 0-7.268-3.018t-3.018-7.268v-34.286q0-4.25 3.018-7.268t7.268-3.018h34.286q4.25 0 7.268 3.018t3.018 7.268z"></path>
</svg>
