<!-- Generated by IcoMoon.io -->
<svg version="1.1" xmlns="http://www.w3.org/2000/svg" width="74" height="64" viewBox="0 0 74 64">
<title>transferlisted</title>
<path d="M37.152 22.646c1.934-1.419 4.016-2.053 6.056-2.489l0.99 3.599c-1.921 0.387-3.76 1.238-5.164 2.464-1.923 1.678-2.070 3.42-0.738 4.946 3.41 3.907 10.888-4.717 16.349 1.54 2.558 2.93 2.103 7.092-0.287 10.146l2.638 3.022-2.075 1.812-2.504-2.869c-2.426 1.903-5.183 2.75-7.558 3.048l-1.063-3.805c2.638-0.366 4.727-1.115 6.467-2.634 2.015-1.759 2.318-3.69 0.932-5.277-3.171-3.633-10.781 4.839-16.456-1.663-2.638-3.022-2.172-6.925 0.39-9.967l-2.585-2.961 2.075-1.811 2.531 2.9zM73.997 40.491c-0.026 0.386-0.205 0.746-0.496 1.001l-24.993 21.816c-0.266 0.233-0.608 0.36-0.959 0.36-0.033 0-0.066-0.001-0.099-0.004-0.386-0.026-0.746-0.205-1-0.496l-24.389-27.94c-2.229 3.725-5.396 7.835-11.413 7.926-0.062 0.001-0.124 0.002-0.186 0.002-2.845 0-5.356-0.995-7.274-2.883-2.026-1.996-3.188-4.818-3.189-7.743-0.001-6.493 3.235-12.626 8.877-16.825 1.763-1.313 3.686-2.384 5.697-3.205l0.8-10.816c0.059-0.797 0.75-1.398 1.545-1.349l23.273 1.438c0.389 0.024 0.753 0.203 1.009 0.497l32.44 37.163c0.255 0.291 0.383 0.672 0.357 1.058zM20.036 32.908l-6.026-6.903c-0.257-0.294-0.384-0.678-0.356-1.067l0.676-9.14c-1.297 0.628-2.543 1.377-3.711 2.246-4.968 3.698-7.703 8.842-7.702 14.485 0 2.118 0.867 4.235 2.318 5.665 1.39 1.369 3.254 2.079 5.368 2.044 4.613-0.070 7.005-3.161 9.432-7.329zM70.483 40.252l-31.079-35.605-21.226-1.312-0.602 8.143c2.253-0.618 4.571-0.93 6.867-0.925 0.007-0.006 0.013-0.013 0.019-0.018 0.871-0.76 1.987-1.179 3.142-1.179 1.382 0 2.695 0.597 3.604 1.637 0.84 0.962 1.255 2.193 1.168 3.467s-0.664 2.439-1.626 3.278c-0.871 0.76-1.987 1.179-3.143 1.179-1.382 0-2.695-0.597-3.603-1.637-0.84-0.962-1.255-2.193-1.168-3.468 0.007-0.1 0.022-0.198 0.035-0.296-1.86 0.127-3.721 0.487-5.525 1.070l-0.737 9.958 31.079 35.605 22.795-19.898zM26.202 15.362c0.354 0.406 0.866 0.638 1.405 0.638 0.45 0 0.884-0.163 1.224-0.46 0.375-0.327 0.6-0.781 0.634-1.278 0.004-0.056 0.004-0.112 0.003-0.168-1.18-0.302-2.392-0.495-3.618-0.58-0.055 0.158-0.091 0.324-0.103 0.495-0.034 0.497 0.128 0.977 0.455 1.352z"></path>
</svg>
