<!-- Generated by IcoMoon.io -->
<svg version="1.1" xmlns="http://www.w3.org/2000/svg" width="50" height="64" viewBox="0 0 50 64">
<title>trash</title>
<path d="M18.286 49.143v-25.143q0-0.5-0.321-0.821t-0.821-0.321h-2.286q-0.5 0-0.821 0.321t-0.321 0.821v25.143q0 0.5 0.321 0.821t0.821 0.321h2.286q0.5 0 0.821-0.321t0.321-0.821zM27.429 49.143v-25.143q0-0.5-0.321-0.821t-0.821-0.321h-2.286q-0.5 0-0.821 0.321t-0.321 0.821v25.143q0 0.5 0.321 0.821t0.821 0.321h2.286q0.5 0 0.821-0.321t0.321-0.821zM36.571 49.143v-25.143q0-0.5-0.321-0.821t-0.821-0.321h-2.286q-0.5 0-0.821 0.321t-0.321 0.821v25.143q0 0.5 0.321 0.821t0.821 0.321h2.286q0.5 0 0.821-0.321t0.321-0.821zM17.143 13.714h16l-1.714-4.179q-0.25-0.321-0.607-0.393h-11.321q-0.357 0.071-0.607 0.393zM50.286 14.857v2.286q0 0.5-0.321 0.821t-0.821 0.321h-3.429v33.857q0 2.964-1.679 5.125t-4.036 2.161h-29.714q-2.357 0-4.036-2.089t-1.679-5.054v-34h-3.429q-0.5 0-0.821-0.321t-0.321-0.821v-2.286q0-0.5 0.321-0.821t0.821-0.321h11.036l2.5-5.964q0.536-1.321 1.929-2.25t2.821-0.929h11.429q1.429 0 2.821 0.929t1.929 2.25l2.5 5.964h11.036q0.5 0 0.821 0.321t0.321 0.821z"></path>
</svg>
