<!-- Generated by IcoMoon.io -->
<svg version="1.1" xmlns="http://www.w3.org/2000/svg" width="55" height="64" viewBox="0 0 55 64">
<title>undo</title>
<path d="M54.857 32q0 5.571-2.179 10.643t-5.857 8.75-8.75 5.857-10.643 2.179q-6.143 0-11.679-2.589t-9.429-7.304q-0.25-0.357-0.232-0.804t0.304-0.732l4.893-4.929q0.357-0.321 0.893-0.321 0.571 0.071 0.821 0.429 2.607 3.393 6.393 5.25t8.036 1.857q3.714 0 7.089-1.446t5.839-3.911 3.911-5.839 1.446-7.089-1.446-7.089-3.911-5.839-5.839-3.911-7.089-1.446q-3.5 0-6.714 1.268t-5.714 3.625l4.893 4.929q1.107 1.071 0.5 2.464-0.607 1.429-2.107 1.429h-16q-0.929 0-1.607-0.679t-0.679-1.607v-16q0-1.5 1.429-2.107 1.393-0.607 2.464 0.5l4.643 4.607q3.821-3.607 8.732-5.589t10.161-1.982q5.571 0 10.643 2.179t8.75 5.857 5.857 8.75 2.179 10.643z"></path>
</svg>
