<!-- Generated by IcoMoon.io -->
<svg version="1.1" xmlns="http://www.w3.org/2000/svg" width="64" height="64" viewBox="0 0 64 64">
<title>untitled119</title>
<path d="M45.296 19.744c-0.976-6.588-6.612-11.672-13.468-11.672s-12.492 5.084-13.468 11.672h-18.36v4h18.36c0.976 6.584 6.612 11.668 13.468 11.668s12.492-5.084 13.468-11.668h18.704v-4h-18.704zM31.828 11.072c5.208 0 9.532 3.74 10.468 8.672h-20.94c0.94-4.932 5.268-8.672 10.472-8.672zM31.828 32.416c-5.204 0-9.532-3.74-10.472-8.672h20.94c-0.936 4.932-5.26 8.672-10.468 8.672z"></path>
</svg>
