<!-- Generated by IcoMoon.io -->
<svg version="1.1" xmlns="http://www.w3.org/2000/svg" width="58" height="64" viewBox="0 0 58 64">
<title>untitled72</title>
<path d="M37.132 12.326c5.496 0 9.968 4.488 9.968 10.004 0 3.804-2.24 7.344-5.704 9.020l-4.32 2.084-4.324-2.088c-3.464-1.668-5.616-5.124-5.616-9.016 0-5.516 4.484-10.004 9.996-10.004zM37.096 36.662l15.756 7.832v15.176h-31.708v-15.164l15.952-7.844zM37.132 8.19c-7.812 0-14.132 6.328-14.132 14.14 0 5.608 3.216 10.456 7.952 12.744l-13.944 6.86v21.876h39.984v-21.876l-13.796-6.86c4.732-2.284 8.044-7.132 8.044-12.744 0-7.812-6.304-14.14-14.108-14.14v0z"></path>
</svg>
