<!-- Generated by IcoMoon.io -->
<svg version="1.1" xmlns="http://www.w3.org/2000/svg" width="66" height="64" viewBox="0 0 66 64">
<title>untitled136</title>
<path d="M64.484 28.254v-0.496h-0.084c-1.96-9.168-10.128-16.072-19.9-16.072h-43.364v16.944h23.3c-0.184 1.108-0.28 2.232-0.28 3.36 0 11.208 9.128 20.324 20.348 20.324 11.228 0 20.36-9.116 20.36-20.324 0-1.276-0.152-2.52-0.38-3.736zM44.504 48.014c-8.848 0-16.048-7.184-16.048-16.020 0-1.652 0.252-3.288 0.752-4.86l0.556-2.804h-2.892v-0.176h-21.436v-8.164h27.88v8.332h7.168v-8.332h4.020c8.856 0 16.056 7.18 16.056 16.004 0 8.836-7.2 16.020-16.056 16.020z"></path>
</svg>
