<!-- Generated by IcoMoon.io -->
<svg version="1.1" xmlns="http://www.w3.org/2000/svg" width="74" height="64" viewBox="0 0 74 64">
<title>untitled15</title>
<path d="M32.934 46.577v-2.761c0-3.018 0.655-3.768 2.716-5.883l3.868-3.918c0.854-0.859 1.261-2.015 1.261-3.271 0-2.612-1.911-4.424-4.523-4.424-2.815 0-4.776 2.21-5.025 4.925l-6.439-0.502c0.755-6.38 5.327-10.153 11.712-10.153 5.978 0 10.6 3.47 10.6 9.805 0 4.374-2.557 6.484-5.476 9.245-1.857 1.762-2.661 2.413-2.661 5.029v1.907h-6.032zM35.952 49.64c2.164 0 4.021 1.658 4.021 3.823s-1.807 3.918-4.021 3.918c-2.11 0-4.021-1.658-4.021-3.818-0.005-2.16 1.807-3.922 4.021-3.922z"></path>
</svg>
