<!-- Generated by IcoMoon.io -->
<svg version="1.1" xmlns="http://www.w3.org/2000/svg" width="64" height="64" viewBox="0 0 64 64">
<title>untitled11</title>
<path d="M64 39.828h-18.528c-0.936-6.624-6.588-11.752-13.472-11.752-6.88 0-12.536 5.128-13.476 11.752h-18.524v3.828h18.524c0.94 6.628 6.592 11.756 13.476 11.756s12.536-5.124 13.476-11.752h18.524v-3.832zM32 31.072c5.232 0 9.576 3.788 10.48 8.756h-20.96c0.908-4.968 5.252-8.756 10.48-8.756zM32 52.416c-5.232 0-9.576-3.788-10.48-8.76h20.96c-0.904 4.972-5.248 8.76-10.48 8.76z"></path>
</svg>
