<!-- Generated by IcoMoon.io -->
<svg version="1.1" xmlns="http://www.w3.org/2000/svg" width="64" height="64" viewBox="0 0 64 64">
<title>untitled8</title>
<path d="M64 40.256h-18.536c-0.976-6.584-6.608-11.672-13.464-11.672-6.852 0-12.492 5.084-13.468 11.672h-18.532v4h18.532c0.976 6.588 6.616 11.668 13.468 11.668 6.856 0 12.488-5.084 13.464-11.668h18.536v-4zM32 31.584c5.204 0 9.532 3.744 10.472 8.676h-20.944c0.94-4.936 5.272-8.676 10.472-8.676zM32 52.932c-5.2 0-9.532-3.744-10.472-8.676h20.944c-0.94 4.936-5.268 8.676-10.472 8.676z"></path>
</svg>
