<!-- Generated by IcoMoon.io -->
<svg version="1.1" xmlns="http://www.w3.org/2000/svg" width="64" height="64" viewBox="0 0 64 64">
<title>untitled68</title>
<path d="M64 29.4h-6.632c-1.22-11.992-10.772-21.548-22.764-22.768v-6.632h-5.2v6.632c-11.996 1.216-21.556 10.776-22.772 22.768h-6.632v5.2h6.632c1.22 11.992 10.776 21.548 22.768 22.764v6.636h5.2v-6.632c11.988-1.22 21.548-10.776 22.764-22.764h6.636v-5.204zM53.24 29.4h-18.64v-18.64c9.772 1.196 17.448 8.868 18.64 18.64zM29.4 10.76v18.64h-18.64c1.192-9.772 8.868-17.448 18.64-18.64zM10.76 34.6h18.64v18.636c-9.772-1.188-17.444-8.864-18.64-18.636zM34.6 53.24v-18.64h18.636c-1.188 9.772-8.864 17.448-18.636 18.64z"></path>
</svg>
