<!-- Generated by IcoMoon.io -->
<svg version="1.1" xmlns="http://www.w3.org/2000/svg" width="103" height="64" viewBox="0 0 103 64">
<title>x6</title>
<path d="M16.678 63.194h-16.678l17.754-31.597-16.333-28.614h18.835l8.819 18.24 10.138-18.24h16.806l-16.096 28.858 17.286 31.347h-18.957l-10.496-21.107-11.078 21.114zM89.638 14.304c0.090-1.613-0.173-3.046-0.8-4.026-0.717-1.075-1.792-1.702-3.584-1.702-5.549 0-5.728 2.771-5.728 18.579 3.488-3.040 5.363-4.288 10.010-4.288 11.61 0 13.85 10.278 13.85 19.853 0 12.96-4.736 21.274-18.778 21.274-16.269 0-17.434-13.952-17.434-26.733 0-24.851 1.338-37.267 19.117-37.267 9.478 0 16.538 4.019 16.448 14.298l-13.101 0.013zM90.79 42.816c0-7.866-0.986-11.341-5.728-11.341-4.922 0-5.274 4.55-5.274 12.416 0 3.661 0 10.989 5.19 10.989 4.288 0 5.811-2.413 5.811-12.064z"></path>
</svg>
