<!-- Generated by IcoMoon.io -->
<svg version="1.1" xmlns="http://www.w3.org/2000/svg" width="512" height="512" viewBox="0 0 512 512">
<title></title>
<g id="icomoon-ignore">
</g>
<path fill="#389933" d="M447.872 175.872l64.128 64.128-1.376-160h-158.624l61.952 61.952-110.016 111.36c-14.144-8.256-30.368-13.312-47.936-13.312-17.664 0-33.984 5.12-48.224 13.44l-110.272-110.944 62.496-62.496h-160v160l63.584-63.584 110.144 110.816c-8.512 14.368-13.728 30.88-13.728 48.768 0 52.992 42.976 96 96 96 52.992 0 96-43.008 96-96 0-17.984-5.248-34.624-13.888-48.992l109.76-111.136z"></path>
</svg>
