<!-- Generated by IcoMoon.io -->
<svg version="1.1" xmlns="http://www.w3.org/2000/svg" width="512" height="512" viewBox="0 0 512 512">
<title></title>
<g id="icomoon-ignore">
</g>
<path fill="#fdcd67" d="M507.040 416.224l-219.040-379.456c-6.624-11.36-18.816-18.432-32-18.432s-25.376 7.072-32 18.432l-219.040 379.488c-6.592 11.392-6.592 25.536 0 36.896s18.816 18.464 31.968 18.464h438.176c13.12 0 25.376-7.104 31.936-18.496 6.624-11.392 6.624-25.504 0-36.896z"></path>
<path fill="#000" d="M253.92 351.968c15.296 0 28.448 11.744 28.448 27.072s-12.8 27.744-28.448 27.744c-14.944 0-28.48-11.744-28.48-27.040s12.8-27.776 28.48-27.776zM275.264 325.632h-42.688v-172.992h42.688v172.992z"></path>
</svg>
