<?xml version="1.0" encoding="utf-8"?>
<!-- Generator: Adobe Illustrator 15.1.0, SVG Export Plug-In . SVG Version: 6.00 Build 0)  -->
<!DOCTYPE svg PUBLIC "-//W3C//DTD SVG 1.1//EN" "http://www.w3.org/Graphics/SVG/1.1/DTD/svg11.dtd">
<svg version="1.1" id="guide_copy_3" xmlns="http://www.w3.org/2000/svg" xmlns:xlink="http://www.w3.org/1999/xlink" x="0px"
	 y="0px" width="16px" height="16px" viewBox="0 0 16 16" enable-background="new 0 0 16 16" xml:space="preserve">
<g>
	<circle fill="#FFFFFF" cx="8" cy="10.032" r="5.905"/>
	<circle fill="#FFFFFF" cx="8.019" cy="10.032" r="5.5"/>
	<path fill="#444444" d="M7.999,5.126c2.705,0,4.906,2.201,4.906,4.906s-2.201,4.904-4.906,4.904s-4.904-2.199-4.904-4.904
		S5.294,5.126,7.999,5.126 M7.999,4.126c-3.263,0-5.904,2.645-5.904,5.906c0,3.261,2.643,5.904,5.904,5.904s5.906-2.644,5.906-5.904
		C13.905,6.771,11.261,4.126,7.999,4.126L7.999,4.126z"/>
	<polygon fill="#444444" points="6.704,11.817 5.9,9.351 7.999,7.824 10.099,9.351 9.296,11.817 	"/>
	<g>
		<g>
			<defs>
				<circle id="SVGID_1_" cx="7.999" cy="10.032" r="4.906"/>
			</defs>
			<clipPath id="SVGID_2_">
				<use xlink:href="#SVGID_1_"  overflow="visible"/>
			</clipPath>
			<polygon clip-path="url(#SVGID_2_)" fill="#444444" points="12.769,14.769 11.026,16.035 9.282,14.769 9.948,12.719 
				12.103,12.721 			"/>
		</g>
		<g>
			<defs>
				<circle id="SVGID_3_" cx="7.999" cy="10.032" r="4.906"/>
			</defs>
			<clipPath id="SVGID_4_">
				<use xlink:href="#SVGID_3_"  overflow="visible"/>
			</clipPath>
			<polygon clip-path="url(#SVGID_4_)" fill="#444444" points="14.649,9.019 12.907,10.285 11.163,9.019 11.829,6.97 13.983,6.971 
							"/>
		</g>
		<g>
			<defs>
				<circle id="SVGID_5_" cx="7.999" cy="10.032" r="4.906"/>
			</defs>
			<clipPath id="SVGID_6_">
				<use xlink:href="#SVGID_5_"  overflow="visible"/>
			</clipPath>
			<polygon clip-path="url(#SVGID_6_)" fill="#444444" points="9.741,5.461 8.001,6.728 6.257,5.462 6.923,3.412 9.077,3.413 			"/>
		</g>
		<g>
			<defs>
				<circle id="SVGID_7_" cx="7.999" cy="10.032" r="4.906"/>
			</defs>
			<clipPath id="SVGID_8_">
				<use xlink:href="#SVGID_7_"  overflow="visible"/>
			</clipPath>
			<polygon clip-path="url(#SVGID_8_)" fill="#444444" points="4.835,9.019 3.093,10.285 1.351,9.019 2.017,6.97 4.171,6.971 			"/>
		</g>
		<g>
			<defs>
				<circle id="SVGID_9_" cx="7.999" cy="10.032" r="4.906"/>
			</defs>
			<clipPath id="SVGID_10_">
				<use xlink:href="#SVGID_9_"  overflow="visible"/>
			</clipPath>
			<polygon clip-path="url(#SVGID_10_)" fill="#444444" points="6.73,14.769 4.986,16.035 3.245,14.769 3.911,12.719 6.064,12.721 
							"/>
		</g>
	</g>
</g>
<polygon fill="#444444" points="3.982,3.001 12.015,2.97 8.015,0.063 "/>
</svg>
