<?xml version="1.0" encoding="utf-8"?>
<!-- Generator: Adobe Illustrator 15.1.0, SVG Export Plug-In . SVG Version: 6.00 Build 0)  -->
<!DOCTYPE svg PUBLIC "-//W3C//DTD SVG 1.1//EN" "http://www.w3.org/Graphics/SVG/1.1/DTD/svg11.dtd">
<svg version="1.1" id="Layer_1" xmlns="http://www.w3.org/2000/svg" xmlns:xlink="http://www.w3.org/1999/xlink" x="0px" y="0px"
	 width="16px" height="16px" viewBox="0 0 16 16" enable-background="new 0 0 16 16" xml:space="preserve">
<g>
	<path fill="#FDCD67" d="M0.524,3.568c0,0-0.043,1.893,0.094,1.938c0.136,0.046,4.156,0.102,4.156,0.102s-0.642,4.417,3.034,4.191
		s3.358-2.813,3.495-3.631c0.135-0.816-1.236-2.116-1.236-2.116s0.011-0.739-2.833-0.742C3.648,3.306,0.524,3.568,0.524,3.568z"/>
</g>
<g>
	<rect x="4.239" y="3.037" fill="#444444" width="4.539" height="0.605"/>
</g>
<g>
	<rect x="11.086" y="5.84" fill="#444444" width="0.523" height="1.312"/>
</g>
<path fill="#444444" d="M7.99,2.922H0.117v0.115H0v2.904h0.117v0.057h4.23c-0.032,0.201-0.05,0.405-0.05,0.609
	c0,2.034,1.657,3.689,3.693,3.689c2.037,0,3.695-1.655,3.695-3.689C11.687,4.575,10.028,2.922,7.99,2.922z M7.99,9.516
	c-1.605,0-2.912-1.305-2.912-2.908c0-0.298,0.046-0.595,0.136-0.883l0.099-0.508H4.79V5.186H0.945V3.703H5.96v1.513h1.301V3.703
	H7.99c1.607,0,2.914,1.303,2.914,2.904C10.903,8.211,9.598,9.516,7.99,9.516z"/>
<polygon fill="#389933" points="16,3.458 14.014,0 12.012,3.45 13.018,3.452 12.993,14.498 14.993,14.502 15.018,3.456 "/>
<polygon fill="#389933" points="12.458,13.025 9.13,11.104 9.13,12.073 0,12.073 0,14.001 9.13,14.001 9.13,14.948 "/>
<g id="Layer_17">
</g>
<g id="guide_1_">
</g>
</svg>
