<?xml version="1.0" encoding="UTF-8"?>
<!-- Generator: Adobe Illustrator 15.1.0, SVG Export Plug-In . SVG Version: 6.00 Build 0)  -->
<svg width="18" height="18" enable-background="new 0 0 16 16" version="1.1" viewBox="0 0 18 18" xml:space="preserve" xmlns="http://www.w3.org/2000/svg" xmlns:cc="http://creativecommons.org/ns#" xmlns:dc="http://purl.org/dc/elements/1.1/" xmlns:rdf="http://www.w3.org/1999/02/22-rdf-syntax-ns#"><metadata><rdf:RDF><cc:Work rdf:about=""><dc:format>image/svg+xml</dc:format><dc:type rdf:resource="http://purl.org/dc/dcmitype/StillImage"/><dc:title/></cc:Work></rdf:RDF></metadata>
<g transform="matrix(1.125 0 0 1.125 .050816 .050847)" fill="#728c71">
	
		<path d="m5.003 12.751s-0.993-1.394-2.353-0.314c0.953 1.45 2.334 0.438 2.334 0.438"/>
		<path d="m3.936 13.394c-0.091 0-0.184-8e-3 -0.279-0.025-0.455-0.082-0.843-0.363-1.154-0.836l-0.088-0.134 0.126-0.1c0.444-0.353 0.898-0.495 1.358-0.434 0.757 0.107 1.228 0.756 1.247 0.784 0.042 0.057 0.042 0.13 0.01 0.188 0.014 0.065-0.01 0.137-0.068 0.18-0.024 0.016-0.524 0.377-1.152 0.377zm-1.043-0.919c0.235 0.307 0.512 0.491 0.823 0.548 0.47 0.083 0.913-0.137 1.087-0.24-0.132-0.153-0.481-0.504-0.956-0.568-0.316-0.044-0.635 0.044-0.954 0.26z"/>
	
	
		<line x1="3.699" x2="5.018" y1="12.597" y2="12.809"/>
		<path d="m5.018 12.96c-8e-3 0-0.016 0-0.023-2e-3l-1.318-0.212c-0.083-0.014-0.14-0.092-0.126-0.174 0.012-0.083 0.092-0.145 0.174-0.126l1.318 0.212c0.083 0.014 0.14 0.092 0.126 0.174-0.012 0.075-0.077 0.128-0.151 0.128z"/>
	
</g>
<g transform="matrix(1.125 0 0 1.125 .050816 .050847)">
	<path d="m6.932 13.229-0.676-0.249c-2.54-0.924-4.246-3.35-4.246-6.036 0-2.459 0.673-4.199 0.673-4.199-0.899 1.226-1.375 2.677-1.375 4.199 0 2.981 1.893 5.672 4.708 6.696l0.678 0.25c0.893 0.323 2.241 0.81 2.687 1.571l0.607-0.356c-0.576-0.979-2.009-1.497-3.056-1.876z" fill="#728c71"/>
</g>
<g transform="matrix(1.125 0 0 1.125 .050816 .050847)" fill="#728c71">
	
		<path d="m1.965 4.793s0.709-1.558-0.905-2.195c-0.779 1.55 0.788 2.24 0.788 2.24"/>
		<path d="m1.848 5.015c-0.023 0-0.048-5e-3 -0.071-0.015-0.031-0.014-0.762-0.343-1.021-1.063-0.156-0.436-0.107-0.912 0.146-1.418l0.073-0.144 0.149 0.059c0.527 0.209 0.881 0.531 1.055 0.96 0.286 0.71-0.04 1.442-0.055 1.472-0.029 0.066-0.091 0.103-0.158 0.103-0.032 0.029-0.075 0.046-0.118 0.046zm-0.7-2.187c-0.148 0.358-0.169 0.69-0.063 0.989 0.165 0.454 0.576 0.721 0.752 0.819 0.067-0.19 0.195-0.668 0.015-1.113-0.12-0.293-0.356-0.526-0.704-0.695z"/>
	
	
		<line x1="1.447" x2="1.921" y1="3.587" y2="4.835"/>
		<path d="m1.921 4.987c-0.061 0-0.118-0.036-0.142-0.098l-0.475-1.248c-0.029-0.079 9e-3 -0.167 0.089-0.197 0.079-0.031 0.166 0.01 0.195 0.089l0.476 1.248c0.029 0.078-9e-3 0.166-0.088 0.196-0.018 7e-3 -0.037 0.01-0.055 0.01z"/>
	
</g><g fill="#728c71" stroke-width="1.125">
<path d="m3.8814 5.9008c0.29588-0.4275 0.38138-0.9585 0.252-1.584l-0.037125-0.17662-0.18 0.02025c-0.63225 0.075375-1.1104 0.32288-1.4242 0.73688-0.51638 0.6885-0.3735 1.5806-0.369 1.6189 0.00562 0.027 0.016875 0.052875 0.02925 0.075375 0.01575 0.023625 0.046125 0.03375 0.070875 0.050625v0.00113c0.010125 0.01575 0.025875 0.032625 0.043875 0.04275 0.00788 0.00675 0.018 0.00225 0.02475 0.00675 0.045 0.04725 0.10462 0.077625 0.171 0.066375 0.03825-0.00563 0.92812-0.15075 1.4186-0.85838z"/>
<path d="m14.221 5.9008c-0.297-0.42638-0.38138-0.9585-0.25312-1.5829l0.03712-0.17662 0.18 0.02025c0.63225 0.075375 1.1092 0.32288 1.4242 0.73688 0.51638 0.6885 0.3735 1.5806 0.37012 1.6178-0.0068 0.027-0.01688 0.052875-0.03037 0.075375-0.01575 0.023625-0.04612 0.03375-0.07088 0.050625v0.00113c-0.01013 0.016875-0.02362 0.032625-0.04275 0.043875-0.0079 0.00675-0.018 0.00225-0.02362 0.00675-0.045 0.04725-0.10462 0.077625-0.171 0.066375-0.03937-0.00676-0.93038-0.15188-1.4198-0.8595z"/>
<path d="m11.905 14.314c0.29588-0.42638 0.38138-0.9585 0.252-1.5829l-0.03488-0.17662-0.18112 0.02025c-0.63225 0.07537-1.1104 0.32288-1.4242 0.73688-0.51638 0.6885-0.3735 1.5795-0.37012 1.6178 0.0068 0.027 0.01688 0.05287 0.03038 0.07425 0.01575 0.02363 0.04612 0.03487 0.07087 0.05175v0.0011c0.01013 0.01687 0.02363 0.0315 0.04275 0.04387 0.0079 0.0068 0.018 0.0023 0.02363 0.0068 0.045 0.04725 0.10462 0.0765 0.171 0.06638 0.0405-0.0056 0.93038-0.15075 1.4198-0.8595z"/>
<path d="m6.1967 14.314c-0.29588-0.42638-0.38025-0.9585-0.252-1.5829l0.036-0.17662 0.18 0.02025c0.63225 0.07537 1.1104 0.32288 1.4243 0.73688 0.51638 0.6885 0.37462 1.5795 0.37125 1.6178-0.0079 0.027-0.018 0.05175-0.03037 0.07425-0.01575 0.02363-0.04612 0.03487-0.07088 0.05175v0.0011c-0.01012 0.01687-0.02362 0.0315-0.04275 0.04387-0.0079 0.0068-0.018 0.0023-0.02362 0.0068-0.045 0.04725-0.10462 0.0765-0.171 0.06638-0.04163-0.0056-0.93038-0.15075-1.4209-0.8595z"/>
</g><g transform="matrix(1.125 0 0 1.125 .050816 .050847)" fill="#728c71">
	
		<path d="m2.074 9.105s-0.163-1.705-1.88-1.45c0.1 1.733 1.801 1.547 1.801 1.547"/>
		<path d="m1.853 9.384c-0.27 0-0.82-0.051-1.253-0.417-0.354-0.299-0.548-0.737-0.581-1.301l-9e-3 -0.161 0.158-0.023c0.561-0.085 1.029 0.018 1.393 0.303 0.603 0.473 0.686 1.27 0.689 1.304 7e-3 0.07-0.029 0.135-0.087 0.168-0.022 0.064-0.078 0.113-0.149 0.12-8e-3 1e-3 -0.068 7e-3 -0.161 7e-3zm-1.468-1.573c0.051 0.384 0.199 0.682 0.439 0.887 0.364 0.308 0.856 0.361 1.061 0.333-0.038-0.197-0.166-0.676-0.543-0.97-0.25-0.194-0.567-0.28-0.957-0.25z"/>
	
	
		<line x1="1.023" x2="2.059" y1="8.319" y2="9.162"/>
		<path d="m2.059 9.314c-0.035 0-0.068-0.012-0.096-0.035l-1.036-0.841c-0.065-0.053-0.075-0.149-0.022-0.214 0.052-0.066 0.148-0.075 0.214-0.021l1.036 0.842c0.064 0.054 0.075 0.148 0.021 0.214-0.03 0.036-0.073 0.055-0.117 0.055z"/>
	
</g>
<g transform="matrix(1.125 0 0 1.125 .050816 .050847)" fill="#728c71">
	
		<path d="m1.666 6.838s0.281-1.689-1.442-1.887c-0.351 1.7 1.341 1.96 1.341 1.96"/>
		<path d="m1.564 7.088c-8e-3 0-0.017-1e-3 -0.027-3e-3 -0.032-5e-3 -0.824-0.134-1.261-0.762-0.263-0.38-0.339-0.853-0.223-1.408l0.032-0.157 0.159 0.019c0.562 0.064 0.988 0.285 1.265 0.653 0.462 0.612 0.336 1.404 0.331 1.437-0.011 0.07-0.063 0.124-0.128 0.142-0.032 0.048-0.087 0.078-0.148 0.079zm-1.196-1.938c-0.05 0.385 0.017 0.711 0.198 0.972 0.274 0.396 0.742 0.548 0.936 0.597 0.015-0.202 0.015-0.697-0.274-1.079-0.191-0.253-0.48-0.418-0.86-0.49z"/>
	
	
		<line x1=".853" x2="1.636" y1="5.807" y2="6.889"/>
		<path d="m1.636 7.041c-0.047 0-0.094-0.022-0.123-0.062l-0.784-1.083c-0.049-0.069-0.033-0.164 0.035-0.213 0.068-0.048 0.163-0.035 0.212 0.035l0.783 1.082c0.049 0.069 0.034 0.164-0.034 0.213-0.027 0.019-0.058 0.028-0.089 0.028z"/>
	
</g>
<g transform="matrix(1.125 0 0 1.125 .050816 .050847)" fill="#728c71">
	
		<path d="m3.23 11.192s-0.599-1.604-2.19-0.913c0.544 1.648 2.14 1.027 2.14 1.027"/>
		<path d="m2.506 11.598c-0.228 0-0.486-0.039-0.736-0.156-0.417-0.196-0.72-0.569-0.898-1.107l-0.05-0.151 0.148-0.064c0.519-0.226 0.997-0.247 1.422-0.067 0.704 0.299 0.991 1.048 1.002 1.08 0.025 0.066 8e-3 0.139-0.039 0.185-3e-3 0.067-0.045 0.129-0.111 0.155-0.02 6e-3 -0.334 0.125-0.738 0.125zm-1.241-1.218c0.147 0.358 0.367 0.607 0.653 0.742 0.432 0.204 0.915 0.104 1.111 0.049-0.088-0.182-0.335-0.611-0.776-0.798-0.294-0.122-0.626-0.119-0.988 7e-3z"/>
	
	
		<line x1="2.012" x2="3.23" y1="10.707" y2="11.253"/>
		<path d="m3.23 11.404c-0.021 0-0.042-3e-3 -0.062-0.012l-1.22-0.546c-0.077-0.035-0.111-0.125-0.077-0.202 0.035-0.076 0.125-0.111 0.201-0.077l1.219 0.546c0.077 0.035 0.112 0.125 0.077 0.201-0.025 0.057-0.079 0.09-0.138 0.09z"/>
	
</g>
<g transform="matrix(1.125 0 0 1.125 .050816 .050847)">
	
		<path d="m1.678 6.372-0.322-0.88-0.264-0.38-0.44-0.264-0.382 0.059s-0.262 0.116-0.204 0.205c0.06 0.087-0.088 0.438 0 0.556s0.029 0.352 0.146 0.439c0.118 0.088 0.177 0.265 0.324 0.323 0.146 0.058 0.233 0.234 0.35 0.292 0.117 0.059 0.292 0.175 0.381 0.204 0.088 0.03 0.117 0.207 0.234 0.117 0.118-0.086 0.177-0.671 0.177-0.671z" fill="#728c71"/>
	
	
		<path d="m1.823 8.245c0-0.146-0.351-0.556-0.351-0.556l-0.294-0.118s-0.204 0-0.292-0.029-0.292-0.029-0.411-0.029c-0.116 0-0.292 0.087-0.292 0.087l-0.057 0.263 0.144 0.382s0.06 0.321 0.148 0.381c0.088 0.059 0.118 0.175 0.205 0.205 0.087 0.029 0.117 0.292 0.263 0.263s0.35 0.088 0.498 0.088c0.146 0 0.293 0.029 0.38 0.029h0.264s-0.117-0.702-0.117-0.791c0-0.088-0.088-0.175-0.088-0.175z" fill="#728c71"/>
	
	
		<path d="m3.141 11.275s-0.19-0.835-0.937-1.054c-0.748-0.219-0.937-0.088-1.039 0.117-0.104 0.204 0.321 0.79 0.746 0.981 0.424 0.191 1.23-0.044 1.23-0.044z" fill="#728c71"/>
	
	
		<path d="m4.517 12.315s-0.805-0.336-1.391-0.147c-0.585 0.191-0.395 0.278-0.395 0.278s0.161 0.381 0.542 0.586c0.38 0.205 1.054 0.089 1.054 0.089l0.79-0.205z" fill="#728c71"/>
	
</g>
<g transform="matrix(1.125 0 0 1.125 .050816 .050847)">
	<g fill="#728c71">
		
			<path d="m10.995 12.751s0.994-1.394 2.355-0.314c-0.953 1.45-2.333 0.438-2.333 0.438"/>
			<path d="m12.065 13.394c-0.629 0-1.128-0.36-1.152-0.377-0.056-0.042-0.081-0.111-0.068-0.176-0.034-0.058-0.034-0.134 8e-3 -0.192 0.02-0.027 0.49-0.676 1.248-0.783 0.455-0.063 0.915 0.081 1.358 0.434l0.127 0.1-0.089 0.134c-0.311 0.473-0.698 0.754-1.153 0.836-0.094 0.016-0.188 0.024-0.279 0.024zm-0.868-0.614c0.172 0.104 0.616 0.329 1.087 0.242 0.312-0.057 0.588-0.241 0.823-0.547-0.322-0.219-0.645-0.31-0.957-0.261-0.475 0.067-0.822 0.415-0.953 0.566z"/>
		
		
			<line x1="12.301" x2="10.982" y1="12.597" y2="12.809"/>
			<path d="m10.982 12.96c-0.073 0-0.139-0.053-0.15-0.128-0.014-0.082 0.043-0.16 0.126-0.174l1.318-0.212c0.08-0.02 0.162 0.043 0.174 0.126 0.015 0.082-0.042 0.16-0.125 0.174l-1.318 0.212c-9e-3 2e-3 -0.017 2e-3 -0.025 2e-3z"/>
		
	</g>
	
		<path d="m13.316 2.746s0.673 1.764 0.673 4.199c0 2.686-1.705 5.112-4.246 6.037l-0.675 0.248c-1.046 0.379-2.48 0.896-3.055 1.876l0.605 0.356c0.447-0.762 1.795-1.248 2.688-1.571l0.676-0.25c2.817-1.024 4.709-3.715 4.709-6.696 1e-3 -1.523-0.474-2.974-1.375-4.199z" fill="#728c71"/>
	
	<g fill="#728c71">
		
			<path d="m14.035 4.793s-0.71-1.558 0.905-2.195c0.779 1.55-0.788 2.24-0.788 2.24"/>
			<path d="m14.152 5.015c-0.043 0-0.086-0.017-0.117-0.046-0.067 0-0.13-0.037-0.159-0.103-0.014-0.03-0.341-0.762-0.055-1.472 0.173-0.429 0.526-0.751 1.054-0.96l0.149-0.058 0.073 0.143c0.254 0.506 0.304 0.982 0.147 1.417-0.26 0.721-0.991 1.05-1.022 1.063-0.023 0.011-0.046 0.016-0.07 0.016zm0.701-2.187c-0.349 0.168-0.585 0.402-0.705 0.694-0.18 0.444-0.051 0.923 0.016 1.113 0.177-0.098 0.591-0.369 0.752-0.82 0.105-0.298 0.084-0.63-0.063-0.987z"/>
		
		
			<line x1="14.553" x2="14.079" y1="3.587" y2="4.835"/>
			<path d="m14.079 4.987c-0.019 0-0.036-2e-3 -0.054-9e-3 -0.08-0.03-0.118-0.118-0.089-0.196l0.475-1.248c0.029-0.079 0.117-0.12 0.195-0.089 0.08 0.03 0.118 0.118 0.089 0.196l-0.475 1.248c-0.022 0.062-0.08 0.098-0.141 0.098z"/>
		
	</g>
	<g fill="#728c71">
		
			<path d="m13.926 9.105s0.164-1.705 1.881-1.45c-0.101 1.733-1.803 1.547-1.803 1.547"/>
			<path d="m14.146 9.384c-0.093 0-0.153-6e-3 -0.161-7e-3 -0.071-7e-3 -0.127-0.056-0.147-0.119-0.059-0.034-0.095-0.099-0.088-0.169 4e-3 -0.034 0.087-0.831 0.69-1.304 0.362-0.285 0.829-0.388 1.392-0.303l0.159 0.023-0.01 0.161c-0.032 0.564-0.227 1.002-0.581 1.301-0.433 0.366-0.983 0.417-1.254 0.417zm-0.033-0.353c0.21 0.021 0.696-0.023 1.062-0.334 0.241-0.205 0.389-0.503 0.439-0.887-0.39-0.028-0.709 0.058-0.96 0.252-0.377 0.297-0.503 0.773-0.541 0.969z"/>
		
		
			<line x1="14.978" x2="13.941" y1="8.319" y2="9.162"/>
			<path d="m13.941 9.314c-0.043 0-0.087-0.02-0.117-0.057-0.053-0.065-0.043-0.16 0.021-0.214l1.035-0.842c0.067-0.053 0.162-0.044 0.215 0.021s0.042 0.161-0.021 0.214l-1.036 0.842c-0.028 0.025-0.061 0.036-0.097 0.036z"/>
		
	</g>
	<g fill="#728c71">
		
			<path d="m14.334 6.838s-0.282-1.689 1.442-1.887c0.352 1.7-1.341 1.96-1.341 1.96"/>
			<path d="m14.436 7.088c-0.061 0-0.114-0.031-0.146-0.079-0.065-0.018-0.117-0.071-0.129-0.142-5e-3 -0.033-0.131-0.825 0.329-1.438 0.278-0.368 0.704-0.588 1.267-0.653l0.159-0.019 0.032 0.157c0.115 0.555 0.04 1.028-0.225 1.408-0.436 0.628-1.227 0.757-1.26 0.762-0.01 3e-3 -0.019 4e-3 -0.027 4e-3zm1.196-1.938c-0.38 0.072-0.669 0.237-0.86 0.489-0.288 0.382-0.288 0.877-0.274 1.078 0.196-0.049 0.667-0.203 0.939-0.597 0.179-0.261 0.246-0.586 0.195-0.97z"/>
		
		
			<line x1="15.146" x2="14.365" y1="5.807" y2="6.889"/>
			<path d="m14.365 7.041c-0.03 0-0.062-9e-3 -0.089-0.029-0.068-0.049-0.084-0.144-0.034-0.213l0.781-1.082c0.05-0.068 0.145-0.084 0.212-0.035 0.068 0.049 0.084 0.144 0.034 0.213l-0.781 1.083c-0.029 0.041-0.076 0.063-0.123 0.063z"/>
		
	</g>
	<g fill="#728c71">
		
			<path d="m12.769 11.192s0.601-1.604 2.191-0.913c-0.544 1.648-2.14 1.027-2.14 1.027"/>
			<path d="m13.494 11.598c-0.404 0-0.717-0.119-0.737-0.127-0.065-0.025-0.107-0.087-0.112-0.153-0.047-0.047-0.066-0.119-0.041-0.188 0.012-0.031 0.299-0.78 1.004-1.079 0.425-0.18 0.904-0.158 1.423 0.067l0.147 0.064-0.05 0.151c-0.179 0.538-0.48 0.911-0.897 1.107-0.251 0.119-0.508 0.158-0.737 0.158zm-0.523-0.428c0.193 0.056 0.679 0.157 1.111-0.048 0.286-0.135 0.506-0.384 0.654-0.742-0.365-0.126-0.697-0.129-0.989-7e-3 -0.441 0.187-0.688 0.615-0.776 0.797z"/>
		
		
			<line x1="13.988" x2="12.77" y1="10.707" y2="11.253"/>
			<path d="m12.77 11.404c-0.058 0-0.112-0.033-0.138-0.09-0.035-0.076-1e-3 -0.166 0.076-0.2l1.218-0.546c0.075-0.037 0.166 0 0.201 0.076 0.034 0.077 1e-3 0.167-0.077 0.201l-1.218 0.545c-0.02 0.011-0.041 0.014-0.062 0.014z"/>
		
	</g>
	
		
			<path d="m14.323 6.372 0.321-0.88 0.265-0.379 0.438-0.264 0.381 0.059s0.263 0.116 0.205 0.205c-0.06 0.087 0.088 0.438 0 0.556s-0.029 0.352-0.146 0.439c-0.117 0.088-0.175 0.265-0.322 0.323-0.146 0.058-0.234 0.234-0.352 0.292-0.116 0.059-0.292 0.175-0.381 0.204-0.088 0.03-0.116 0.207-0.233 0.117-0.116-0.087-0.176-0.672-0.176-0.672z" fill="#728c71"/>
		
		
			<path d="m14.176 8.245c0-0.146 0.352-0.556 0.352-0.556l0.294-0.118s0.205 0 0.292-0.029c0.089-0.029 0.293-0.029 0.411-0.029 0.116 0 0.292 0.087 0.292 0.087l0.058 0.263-0.146 0.382s-0.059 0.321-0.146 0.381c-0.088 0.059-0.117 0.175-0.204 0.205-0.089 0.029-0.118 0.292-0.265 0.263-0.146-0.029-0.352 0.088-0.497 0.088-0.146 0-0.293 0.029-0.381 0.029h-0.265s0.119-0.702 0.119-0.791c0-0.088 0.086-0.175 0.086-0.175z" fill="#728c71"/>
		
		
			<path d="m12.859 11.275s0.189-0.835 0.936-1.054c0.748-0.219 0.938-0.088 1.04 0.117 0.103 0.204-0.321 0.79-0.745 0.981-0.426 0.191-1.231-0.044-1.231-0.044z" fill="#728c71"/>
		
		
			<path d="m11.482 12.315s0.806-0.336 1.392-0.147c0.584 0.191 0.396 0.278 0.396 0.278s-0.162 0.381-0.543 0.586c-0.38 0.205-1.053 0.089-1.053 0.089l-0.791-0.205z" fill="#728c71"/>
		
	
</g>
<g transform="matrix(1.125 0 0 1.125 .050816 .050847)" fill="#6c6c6c">
	
		<path d="m5.345 7.761c-0.456 0.849-0.749 1.584-0.929 2.129 0.024 0.168 0.048 0.326 0.064 0.459 3e-3 0.031 5e-3 0.054 8e-3 0.081 0.318-0.445 0.85-1.173 1.562-2.072-0.033-0.034-0.067-0.067-0.098-0.101-0.202-0.193-0.411-0.363-0.607-0.496z"/>
		<path d="m5.9 6.82c0.264 0.268 0.477 0.578 0.653 0.907v5e-3c1.496-1.854 3.751-4.171 6.287-7.194-3.19 1.761-5.594 4.144-6.94 6.282z"/>
		<path d="m6.051 8.357c0.346 0.351 0.706 0.75 0.987 1.28 0.012-0.684-0.202-1.337-0.485-1.905-0.021 0.029-0.047 0.061-0.072 0.089-0.152 0.187-0.293 0.363-0.43 0.536z"/>
		<path d="m4.259 8.541c-0.043-0.823 0.098-1.098 0.613-1.012 0.141 0.035 0.303 0.12 0.473 0.232 0.112-0.21 0.228-0.422 0.363-0.645 0.057-0.097 0.129-0.198 0.192-0.296-0.185-0.185-0.389-0.351-0.643-0.474-0.302-0.146-0.704-0.202-1.064-0.069-0.091 0.029-0.172 0.077-0.253 0.12-0.077 0.049-0.195 0.133-0.231 0.168l-0.064 0.06-0.016 0.014-0.048 0.05-0.052 0.06c-0.068 0.08-0.124 0.17-0.173 0.259-0.187 0.369-0.204 0.714-0.196 0.996 0.012 0.282 0.06 0.526 0.12 0.745 0.248 0.861 0.609 1.396 0.857 1.769 0.026 0.037 0.047 0.063 0.072 0.097 0.042-0.175 0.108-0.419 0.207-0.725-0.055-0.386-0.121-0.848-0.157-1.349z"/>
		<path d="m5.9 6.82c-0.063 0.098-0.135 0.199-0.192 0.296-0.135 0.222-0.251 0.434-0.363 0.645 0.196 0.133 0.405 0.303 0.607 0.496 0.031 0.034 0.065 0.067 0.099 0.101 0.137-0.174 0.278-0.35 0.431-0.536 0.024-0.028 0.05-0.061 0.072-0.089v-5e-3c-0.178-0.33-0.39-0.64-0.654-0.908z"/>
		<path d="m4.416 9.89c-0.099 0.306-0.165 0.55-0.207 0.725 0.025 0.037 0.052 0.073 0.076 0.106 0.054-0.08 0.122-0.172 0.203-0.291-2e-3 -0.027-4e-3 -0.05-8e-3 -0.081-0.016-0.133-0.04-0.291-0.064-0.459z"/>
	
	
		<path d="m10.654 7.761c0.457 0.85 0.75 1.584 0.929 2.129-0.023 0.168-0.048 0.326-0.062 0.459-4e-3 0.031-8e-3 0.054-0.011 0.081-0.316-0.445-0.847-1.173-1.561-2.072 0.032-0.033 0.066-0.066 0.1-0.101 0.202-0.193 0.409-0.363 0.605-0.496z"/>
		<path d="m10.1 6.82c-0.264 0.268-0.476 0.578-0.653 0.908l-2e-3 4e-3c-1.495-1.854-3.751-4.17-6.286-7.194 3.19 1.761 5.594 4.144 6.941 6.282z"/>
		<path d="m9.949 8.357c-0.347 0.351-0.706 0.75-0.987 1.28-0.014-0.684 0.2-1.337 0.483-1.905 0.022 0.028 0.05 0.061 0.073 0.089 0.152 0.187 0.294 0.363 0.431 0.536z"/>
		<path d="m11.739 8.541c0.045-0.823-0.096-1.098-0.611-1.012-0.14 0.035-0.303 0.12-0.474 0.232-0.112-0.21-0.229-0.422-0.363-0.645-0.058-0.097-0.129-0.198-0.191-0.296 0.185-0.185 0.39-0.352 0.642-0.475 0.305-0.146 0.706-0.202 1.066-0.069 0.089 0.029 0.171 0.077 0.251 0.121 0.079 0.049 0.194 0.133 0.231 0.167l0.064 0.06 0.016 0.014 0.049 0.05 0.052 0.06c0.068 0.08 0.124 0.17 0.172 0.259 0.188 0.37 0.205 0.715 0.197 0.997-0.012 0.282-0.062 0.526-0.119 0.745-0.249 0.861-0.61 1.396-0.857 1.769-0.026 0.037-0.048 0.063-0.071 0.097-0.044-0.175-0.109-0.419-0.209-0.725 0.055-0.386 0.122-0.848 0.155-1.349z"/>
		<path d="m10.1 6.82c0.062 0.098 0.134 0.199 0.191 0.296 0.135 0.222 0.251 0.434 0.363 0.645-0.196 0.133-0.403 0.304-0.605 0.496-0.033 0.034-0.067 0.067-0.1 0.101-0.137-0.174-0.279-0.35-0.43-0.537-0.024-0.028-0.051-0.06-0.074-0.089 0 0 1e-3 -2e-3 2e-3 -5e-3 0.177-0.329 0.389-0.639 0.653-0.907z"/>
		<path d="m11.583 9.89c0.1 0.306 0.165 0.55 0.209 0.725-0.026 0.037-0.054 0.073-0.078 0.106-0.055-0.08-0.118-0.172-0.204-0.291 3e-3 -0.027 7e-3 -0.05 0.011-0.081 0.014-0.133 0.039-0.291 0.062-0.459z"/>
	
</g>
</svg>
