<?xml version="1.0" encoding="utf-8"?>
<!-- Generator: Adobe Illustrator 15.1.0, SVG Export Plug-In . SVG Version: 6.00 Build 0)  -->
<!DOCTYPE svg PUBLIC "-//W3C//DTD SVG 1.1//EN" "http://www.w3.org/Graphics/SVG/1.1/DTD/svg11.dtd">
<svg version="1.1" id="Layer_1" xmlns="http://www.w3.org/2000/svg" xmlns:xlink="http://www.w3.org/1999/xlink" x="0px" y="0px"
	 width="300px" height="300px" viewBox="0 0 300 300" enable-background="new 0 0 300 300" xml:space="preserve">
<path fill="#F7C3B0" d="M248.26,71.549l-19.8-19.801c-7.566-7.565-17.626-11.731-28.326-11.731s-20.76,4.166-28.323,11.732
	L51.76,171.8c-7.567,7.566-11.734,17.626-11.734,28.326s4.168,20.759,11.733,28.323l19.801,19.804
	c7.565,7.564,17.625,11.73,28.325,11.73c10.699,0,20.759-4.166,28.325-11.731l120.05-120.053
	C263.879,112.583,263.879,87.169,248.26,71.549z"/>
<g>
	<path fill="#444444" d="M134.534,144.077c3.164,3.166,3.166,8.302,0,11.47c-3.168,3.166-8.304,3.166-11.473,0
		c-3.164-3.168-3.164-8.302,0-11.47C126.232,140.911,131.366,140.911,134.534,144.077z"/>
	<circle fill="#444444" cx="149.443" cy="129.167" r="8.11"/>
	<circle fill="#444444" cx="170.088" cy="149.812" r="8.11"/>
	<circle fill="#444444" cx="149.443" cy="170.457" r="8.11"/>
</g>
<path fill="#D88B73" d="M144.542,202.419l-47.707-47.707C96.835,154.712,107.043,190.375,144.542,202.419z"/>
<path fill="#D88B73" d="M154.345,97.205l47.707,47.707C202.052,144.912,191.844,109.249,154.345,97.205z"/>
</svg>
