<!-- Generated by IcoMoon.io -->
<svg version="1.1" xmlns="http://www.w3.org/2000/svg" width="528" height="512" viewBox="0 0 528 512">
<title></title>
<g id="icomoon-ignore">
</g>
<path fill="#fdcd67" d="M26.272 110.704c0 0-11.968 89.888-5.984 91.872s194.272 9.28 194.272 9.28-28.288 194.72 133.76 184.704c161.984-10.016 148-124 153.984-160s-54.496-93.312-54.496-93.312 0.576-32.576-124.8-32.672c-158.048-0.16-296.736 0.128-296.736 0.128z"></path>
<path fill="#444" d="M515.872 226.032v-3.968h-0.672c-15.68-73.344-81.024-128.576-159.2-128.576h-346.912v135.552h186.4c-1.472 8.864-2.24 17.856-2.24 26.88 0 89.664 73.024 162.592 162.784 162.592 89.824 0 162.88-72.928 162.88-162.592 0-10.208-1.216-20.16-3.040-29.888zM356.032 384.112c-70.784 0-128.384-57.472-128.384-128.16 0-13.216 2.016-26.304 6.016-38.88l4.448-22.432h-23.136v-1.408h-171.488v-65.312h223.040v66.656h57.344v-66.656h32.16c70.848 0 128.448 57.44 128.448 128.032 0 70.688-57.6 128.16-128.448 128.16z"></path>
</svg>
