<?xml version="1.0" encoding="UTF-8" standalone="no"?>
<!-- Generator: Adobe Illustrator 19.0.0, SVG Export Plug-In . SVG Version: 6.00 Build 0)  -->

<svg
   xmlns:dc="http://purl.org/dc/elements/1.1/"
   xmlns:cc="http://creativecommons.org/ns#"
   xmlns:rdf="http://www.w3.org/1999/02/22-rdf-syntax-ns#"
   xmlns:svg="http://www.w3.org/2000/svg"
   xmlns="http://www.w3.org/2000/svg"
   xmlns:sodipodi="http://sodipodi.sourceforge.net/DTD/sodipodi-0.dtd"
   xmlns:inkscape="http://www.inkscape.org/namespaces/inkscape"
   version="1.1"
   id="Layer_1"
   x="0px"
   y="0px"
   viewBox="0 0 453.07999 475.99991"
   xml:space="preserve"
   sodipodi:docname="switch-green.svg"
   inkscape:version="0.92.4 (5da689c313, 2019-01-14)"
   width="453.07999"
   height="475.99991"><metadata
   id="metadata155"><rdf:RDF><cc:Work
       rdf:about=""><dc:format>image/svg+xml</dc:format><dc:type
         rdf:resource="http://purl.org/dc/dcmitype/StillImage" /></cc:Work></rdf:RDF></metadata><defs
   id="defs153" /><sodipodi:namedview
   pagecolor="#ffffff"
   bordercolor="#666666"
   borderopacity="1"
   objecttolerance="10"
   gridtolerance="10"
   guidetolerance="10"
   inkscape:pageopacity="0"
   inkscape:pageshadow="2"
   inkscape:window-width="1630"
   inkscape:window-height="770"
   id="namedview151"
   showgrid="false"
   inkscape:zoom="0.4609375"
   inkscape:cx="42.609086"
   inkscape:cy="285.73639"
   inkscape:window-x="397"
   inkscape:window-y="132"
   inkscape:window-maximized="0"
   inkscape:current-layer="Layer_1" />
<g
   id="g100"
   transform="translate(-29.46,-9.0562248e-5)">
	<g
   id="g98">
		<path
   d="M 478.569,133.054 308.776,2.123 c -3.08,-2.373 -7.24,-2.793 -10.729,-1.076 -3.489,1.716 -5.699,5.265 -5.699,9.153 V 93.785 H 39.66 c -5.632,0 -10.199,4.566 -10.199,10.199 v 74.294 c 0,5.633 4.567,10.199 10.199,10.199 h 252.688 v 83.585 c 0,3.888 2.21,7.437 5.699,9.153 1.427,0.702 2.966,1.046 4.499,1.046 2.212,0 4.41,-0.72 6.229,-2.122 l 169.793,-130.93 c 2.505,-1.931 3.972,-4.914 3.972,-8.077 0,-3.163 -1.467,-6.147 -3.971,-8.078 z M 312.747,251.317 v -73.04 c 0,-5.633 -4.567,-10.199 -10.199,-10.199 H 49.859 v -53.896 h 252.688 c 5.632,0 10.199,-4.566 10.199,-10.199 V 30.945 l 142.891,110.186 z"
   id="path96"
   inkscape:connector-curvature="0" />
	</g>
</g>
<g
   id="g106"
   transform="translate(-29.46,-36.000091)">
	<g
   id="g104">
		<path
   d="M 472.34,323.525 H 219.652 V 239.94 c 0,-3.888 -2.21,-7.437 -5.699,-9.153 -3.487,-1.714 -7.649,-1.299 -10.729,1.076 L 33.432,362.794 c -2.505,1.931 -3.972,4.914 -3.972,8.077 0,3.163 1.468,6.146 3.972,8.077 l 169.792,130.93 c 1.82,1.402 4.015,2.122 6.229,2.122 1.532,0 3.072,-0.345 4.499,-1.046 3.489,-1.716 5.699,-5.265 5.699,-9.153 V 418.218 H 472.34 c 5.632,0 10.199,-4.566 10.199,-10.199 v -74.294 c 0,-5.634 -4.567,-10.2 -10.199,-10.2 z m -10.199,74.294 H 209.453 c -5.632,0 -10.199,4.566 -10.199,10.199 v 73.039 L 56.362,370.871 199.252,260.685 v 73.04 c 0,5.633 4.567,10.199 10.199,10.199 H 462.14 v 53.895 z"
   id="path102"
   inkscape:connector-curvature="0" />
	</g>
</g>


<path
   style="opacity:1;fill:#00ff00;fill-opacity:1;stroke:none;stroke-width:0.41611439;stroke-miterlimit:4;stroke-dasharray:none;stroke-opacity:1"
   d="m 283.37507,213.29172 c -0.0216,-27.53558 -0.14701,-37.61648 -0.4794,-38.51802 -0.92341,-2.50461 -2.77877,-4.58642 -5.10587,-5.72907 l -2.24762,-1.10362 -127.42304,-0.0987 -127.423041,-0.0987 v -26.64868 -26.64869 l 127.614801,-0.0987 127.61479,-0.0987 1.57873,-0.84458 c 2.44172,-1.30625 3.84126,-2.65179 4.81528,-4.62947 l 0.89279,-1.81274 0.19176,-37.731992 0.19175,-37.731988 70.75862,54.549113 c 38.91724,30.002017 70.89385,54.675737 71.05914,54.830487 0.1653,0.15475 -2.59602,2.52058 -6.13625,5.25739 -40.562,31.35696 -135.49741,104.45356 -135.66076,104.45356 -0.11688,0 -0.22564,-16.7836 -0.24168,-37.29689 z"
   id="path821"
   inkscape:connector-curvature="0" /><path
   style="opacity:1;fill:#00ff00;fill-opacity:1;stroke:none;stroke-width:0.83222878;stroke-miterlimit:4;stroke-dasharray:none;stroke-opacity:1"
   d="M 98.265485,389.39257 C 32.989294,339.04495 28.057221,335.08098 29.232687,333.90989 c 0.696251,-0.69365 32.503251,-25.32946 70.682224,-54.74623 l 69.416309,-53.48505 0.38352,38.25507 c 0.41493,41.38858 0.28378,40.18429 4.65748,42.7679 1.91036,1.12848 13.58167,1.2399 129.88306,1.2399 h 127.78409 v 26.83943 26.83944 l -128.5367,0.19841 -128.53669,0.19841 -2.62562,2.8651 -2.62562,2.8651 v 37.9793 c 0,20.88862 -0.25887,37.95862 -0.57527,37.93335 -0.3164,-0.0253 -32.20969,-24.44564 -70.873985,-54.26745 z"
   id="path823"
   inkscape:connector-curvature="0" /></svg>